<svg xmlns="http://www.w3.org/2000/svg" viewBox="0 0 260.2 100"><title>Asset 1</title><g id="Layer_2" data-name="Layer 2"><g id="Layer_1-2" data-name="Layer 1"><path d="M65.1,61.07V0H43L0,61.07V78.52H44.29V100H65.1V78.52H80.54V61.07Zm-44.86,0,24.05-35.6v35.6Z"/><path d="M151.86,24.42l2.64-2C156,21.27,159,19,161.33,17.27c4.62-3.37,4.52-3.14-2.31,6.28l-3.48,4.69,4,3.45,3.89,3.48,1.27-10c.63-5.48.83-10.12.52-10.46s-5.16-.11-10.46.53l-9.88,1,3.57,4Z"/><path d="M150.4,47.38h11.45V41.84c0-5.23-.31-5.9-3.89-8.73l-4-3.06-9.41,9.42c-5.15,5.15-8.62,9-7.57,8.63S144.09,47.38,150.4,47.38Z"/><path d="M132.37,17.9V44.12L141.2,35,150,25.9l-3.37-4c-3-3.69-3.68-4-8.72-4Z"/><path d="M122.32,16.85h4.74l.63-5.06c.42-2.73,1-6.42,1.47-8.11.74-2.95.84-2.83,1.57,2.09,1.58,11.51,1.37,11.06,6.53,11.06,2.52,0,4.62-.53,4.62-1.16S139.25,11.35,136,7.3a93.71,93.71,0,0,0-6.2-7.3c-.73,0-12.06,14.74-12.06,15.69C117.73,16.32,119.82,16.85,122.32,16.85Z"/><path d="M87.53,56.64c7.32,6.11,7.89,6.28,8.52,4.11a25.53,25.53,0,0,0,.62-5.15c0-2.64-.41-2.85-6-3.59-9.87-1.15-11.14-2.21-4-3,9.37-1,10-1.37,10-4.73a17.71,17.71,0,0,0-.62-4.64c-.32-1-1-1.68-1.37-1.58S82.8,47.17,80.6,49.38C80.07,49.91,83,53.06,87.53,56.64Z"/><path d="M96.15,35.17,100,31.69l4-3.45-3.48-4.63c-6.83-9.48-6.93-9.69-2.31-6.28,2.31,1.69,5.36,4,6.83,5.16l2.63,2,3.47-4.1,3.58-4-3.05-.31c-1.57-.21-6.21-.74-10.09-1.16s-7.32-.53-7.57-.21.21,5.15.83,10.53Z"/><path d="M135.68,53c.21.1,4.41,4.11,9.35,8.95l9.05,8.63L158,67.28c3.58-3,3.89-3.58,3.89-9V52.65H148.5C141.24,52.65,135.51,52.75,135.68,53Z"/><path d="M161.54,86l4.52.52L165.43,82c-.31-2.52-.84-7.26-1.27-10.63l-.73-5.9-4,3.37-4,3.37,2,2.53c1.05,1.47,3.37,4.52,5.05,6.84,3.36,4.63,3.14,4.53-6.2-2.32l-4.64-3.37-3.25,4L145.18,84l6,.63C154.39,85.07,159.12,85.6,161.54,86Z"/><path d="M127.14,43.93v-26h-5.57c-5.23,0-5.89.31-8.83,4l-3.26,4L118.32,35Z"/><path d="M101.62,33.17c-3.58,3-3.89,3.89-3.89,8.73v5.37l13.14.32c7.25.21,13.14.32,13.14.21s-4.19-4.11-9.25-8.95l-9.26-9Z"/><path d="M97.73,58.33c0,5.23.31,6,3.78,9l3.89,3.37,9-8.84c4.93-4.73,9.14-8.85,9.41-9s-5.57-.21-12.82-.21H97.73Z"/><path d="M162.91,44.23c0,2.73.42,3.13,4,3.68,13.14,2.21,13,2.09,4.19,3.68-7.78,1.27-8.2,1.47-8.2,4.11a26,26,0,0,0,.62,5c.63,2.21,1.17,2,8.37-4A86.12,86.12,0,0,0,179.67,50c0-.1-3.27-2.95-7.26-6.21a84.78,84.78,0,0,0-7.78-5.89C163.85,37.91,162.91,41.17,162.91,44.23Z"/><path d="M146.61,78.65a14.34,14.34,0,0,0,2.63-4.11c-.11-.42-3.89-4.62-8.52-9.47l-8.35-8.74V82.12h5.79C143.35,82.12,144.19,81.81,146.61,78.65Z"/><path d="M133.47,51.07c-.74-.85-.95-1.58-.64-1.58s.11-.64-.62-1.37A2.72,2.72,0,0,0,128.54,47a2.75,2.75,0,0,0-1.17,1.17c-.74.73-1,1.37-.62,1.37s.1.73-.64,1.58c-1.36,1.58-.94,1.79,3.68,1.79S134.83,52.65,133.47,51.07Z"/><path d="M127.14,82.12V69.49c0-6.95-.1-12.64-.31-12.64s-4.1,4-8.73,8.85l-8.52,9,3.06,3.69c2.83,3.47,3.57,3.78,8.82,3.78Z"/><path d="M95.09,73.49a102.36,102.36,0,0,1-1.25,10.63c-.63,2.43-.42,2.43,4,1.91,2.53-.43,7.33-1,10.62-1.38l6-.63-3.27-4.1-3.25-4-4.64,3.37c-9.24,6.85-9.41,6.85-5.56,1.47,2-2.73,4.31-5.89,5-6.94,1.16-1.58.73-2.31-2.83-5.16l-4.1-3.26Z"/><path d="M136.56,92.24l6.27-7.79-4.73-.77c-2.63-.31-4.94-.52-5.16-.31a51.65,51.65,0,0,0-1.57,7.69c-.64,4-1.37,7.47-1.47,7.68-.42.32-.84-2.09-2.21-11.16-.73-4.73-.84-4.73-8.2-3.69l-2.84.43,6.41,7.9a84.54,84.54,0,0,0,6.73,7.78A86.07,86.07,0,0,0,136.56,92.24Z"/><path d="M244.77,61.07V0H222.62l-43,61.07V78.52H224V100h20.81V78.52H260.2V61.07Zm-44.86,0L224,25.47v35.6Z"/></g></g></svg>