<svg xmlns="http://www.w3.org/2000/svg" viewBox="0 0 288.27 100"><title>Asset 2</title><g id="Layer_2" data-name="Layer 2"><g id="Layer_1-2" data-name="Layer 1"><path d="M66.12,49.14a28.71,28.71,0,0,0-11-11.42,33.21,33.21,0,0,0-17-4.17q-8.07,0-13.15,2.51c-.43.22-.83.49-1.24.74l2.59-19.63h40.2V0h-55L3.57,55.09l16.77,4a12.14,12.14,0,0,1,5.42-6.28,17.18,17.18,0,0,1,8.45-2,16.34,16.34,0,0,1,8.06,1.91A13.63,13.63,0,0,1,47.62,58a16.26,16.26,0,0,1,1.92,8.06,16.6,16.6,0,0,1-1.92,8.12,13.42,13.42,0,0,1-5.35,5.42,16.24,16.24,0,0,1-8.06,1.92,17.21,17.21,0,0,1-9.77-2.91q-4.36-2.91-6.34-9.25L0,75.43A26.63,26.63,0,0,0,6.74,88.57,34.81,34.81,0,0,0,19.16,97a39.4,39.4,0,0,0,15.05,3,37.67,37.67,0,0,0,18.37-4.42A33.46,33.46,0,0,0,65.32,83.42,32.78,32.78,0,0,0,70,66.05,35.35,35.35,0,0,0,66.12,49.14Z"/><path d="M151.34,24.42l2.64-2c1.46-1.16,4.51-3.48,6.83-5.16,4.62-3.37,4.51-3.14-2.32,6.28L155,28.24l4,3.45,3.89,3.48,1.27-10c.62-5.48.83-10.12.52-10.46s-5.16-.11-10.46.53l-9.89,1,3.58,4Z"/><path d="M149.88,47.38h11.45V41.84c0-5.23-.31-5.9-3.89-8.73l-4-3.06L144,39.47c-5.15,5.15-8.62,9-7.58,8.63S143.57,47.38,149.88,47.38Z"/><path d="M131.85,17.9V44.12L140.68,35l8.84-9.06-3.37-4c-3-3.69-3.68-4-8.72-4Z"/><path d="M121.8,16.85h4.74l.63-5.06c.41-2.73,1-6.42,1.47-8.11.73-2.95.84-2.83,1.57,2.09,1.58,11.51,1.37,11.06,6.53,11.06,2.52,0,4.62-.53,4.62-1.16s-2.64-4.32-5.89-8.37a93.71,93.71,0,0,0-6.2-7.3c-.73,0-12.06,14.74-12.06,15.69C117.21,16.32,119.3,16.85,121.8,16.85Z"/><path d="M87,56.64c7.32,6.11,7.89,6.28,8.51,4.11a24.84,24.84,0,0,0,.63-5.15c0-2.64-.42-2.85-6-3.59-9.88-1.15-11.14-2.21-4-3,9.36-1,10-1.37,10-4.73a17.31,17.31,0,0,0-.63-4.64c-.31-1-1-1.68-1.37-1.58S82.28,47.17,80.07,49.38C79.55,49.91,82.49,53.06,87,56.64Z"/><path d="M95.63,35.17l3.89-3.48,4-3.45L100,23.61c-6.83-9.48-6.93-9.69-2.31-6.28,2.31,1.69,5.36,4,6.83,5.16l2.63,2,3.47-4.1,3.58-4-3.06-.31c-1.57-.21-6.2-.74-10.08-1.16s-7.32-.53-7.57-.21.2,5.15.83,10.53Z"/><path d="M135.16,53c.21.1,4.41,4.11,9.35,8.95l9.05,8.63,3.88-3.26c3.58-3,3.89-3.58,3.89-9V52.65H148C140.72,52.65,135,52.75,135.16,53Z"/><path d="M161,86l4.51.52L164.91,82c-.32-2.52-.84-7.26-1.27-10.63l-.73-5.9-4,3.37-4,3.37,2,2.53c1,1.47,3.36,4.52,5,6.84,3.36,4.63,3.14,4.53-6.2-2.32l-4.64-3.37-3.25,4L144.66,84l6,.63C153.87,85.07,158.6,85.6,161,86Z"/><path d="M126.62,43.93v-26h-5.57c-5.23,0-5.89.31-8.83,4l-3.27,4L117.79,35Z"/><path d="M101.1,33.17c-3.58,3-3.89,3.89-3.89,8.73v5.37l13.14.32c7.24.21,13.13.32,13.13.21s-4.18-4.11-9.24-8.95l-9.26-9Z"/><path d="M97.21,58.33c0,5.23.31,6,3.77,9l3.9,3.37,9-8.84c4.94-4.73,9.15-8.85,9.42-9s-5.57-.21-12.83-.21H97.21Z"/><path d="M162.39,44.23c0,2.73.41,3.13,4,3.68,13.14,2.21,13,2.09,4.19,3.68-7.79,1.27-8.21,1.47-8.21,4.11a26.83,26.83,0,0,0,.63,5c.63,2.21,1.16,2,8.37-4A84.65,84.65,0,0,0,179.14,50c0-.1-3.26-2.95-7.26-6.21a83.9,83.9,0,0,0-7.77-5.89C163.33,37.91,162.39,41.17,162.39,44.23Z"/><path d="M146.09,78.65a14.31,14.31,0,0,0,2.62-4.11c-.1-.42-3.89-4.62-8.51-9.47l-8.35-8.74V82.12h5.79C142.82,82.12,143.67,81.81,146.09,78.65Z"/><path d="M133,51.07c-.74-.85-.95-1.58-.64-1.58s.11-.64-.63-1.37A2.71,2.71,0,0,0,128,47a2.75,2.75,0,0,0-1.17,1.17c-.74.73-1,1.37-.63,1.37s.11.73-.63,1.58c-1.36,1.58-1,1.79,3.68,1.79S134.31,52.65,133,51.07Z"/><path d="M126.62,82.12V69.49c0-6.95-.1-12.64-.31-12.64s-4.1,4-8.74,8.85l-8.51,9,3,3.69c2.84,3.47,3.58,3.78,8.83,3.78Z"/><path d="M94.57,73.49a102.36,102.36,0,0,1-1.25,10.63c-.63,2.43-.42,2.43,4,1.91,2.52-.43,7.32-1,10.62-1.38l6-.63-3.26-4.1-3.25-4-4.64,3.37c-9.24,6.85-9.41,6.85-5.56,1.47,2-2.73,4.31-5.89,5-6.94,1.16-1.58.73-2.31-2.84-5.16l-4.1-3.26Z"/><path d="M136,92.24l6.27-7.79-4.74-.77c-2.62-.31-4.93-.52-5.15-.31a50.41,50.41,0,0,0-1.57,7.69c-.64,4-1.37,7.47-1.48,7.68-.42.32-.83-2.09-2.2-11.16-.74-4.73-.84-4.73-8.2-3.69l-2.84.43,6.41,7.9a83,83,0,0,0,6.73,7.78A86.07,86.07,0,0,0,136,92.24Z"/><path d="M260.47,24.42l2.63-2c1.47-1.16,4.52-3.48,6.84-5.16,4.62-3.37,4.51-3.14-2.32,6.28l-3.47,4.69,4,3.45,3.89,3.48,1.26-10c.63-5.48.84-10.12.53-10.46s-5.16-.11-10.46.53l-9.89,1,3.58,4Z"/><path d="M259,47.38h11.46V41.84c0-5.23-.32-5.9-3.89-8.73l-4-3.06-9.41,9.42c-5.15,5.15-8.62,9-7.58,8.63S252.7,47.38,259,47.38Z"/><path d="M241,17.9V44.12L249.81,35l8.84-9.06-3.37-4c-3-3.69-3.68-4-8.72-4Z"/><path d="M230.93,16.85h4.74l.63-5.06c.41-2.73,1-6.42,1.47-8.11.73-2.95.84-2.83,1.57,2.09,1.58,11.51,1.37,11.06,6.53,11.06,2.52,0,4.62-.53,4.62-1.16s-2.64-4.32-5.89-8.37A93.71,93.71,0,0,0,238.4,0c-.73,0-12.06,14.74-12.06,15.69C226.34,16.32,228.43,16.85,230.93,16.85Z"/><path d="M196.14,56.64c7.32,6.11,7.89,6.28,8.51,4.11a24.84,24.84,0,0,0,.63-5.15c0-2.64-.42-2.85-6-3.59-9.88-1.15-11.14-2.21-4-3,9.36-1,10-1.37,10-4.73a17.31,17.31,0,0,0-.63-4.64c-.31-1-1-1.68-1.37-1.58s-11.87,9.16-14.08,11.37C188.68,49.91,191.62,53.06,196.14,56.64Z"/><path d="M204.76,35.17l3.89-3.48,4-3.45-3.47-4.63c-6.83-9.48-6.93-9.69-2.31-6.28,2.31,1.69,5.36,4,6.83,5.16l2.63,2,3.47-4.1,3.58-4-3.06-.31c-1.57-.21-6.2-.74-10.08-1.16s-7.32-.53-7.58-.21.21,5.15.84,10.53Z"/><path d="M244.29,53c.21.1,4.41,4.11,9.35,8.95l9.05,8.63,3.88-3.26c3.57-3,3.89-3.58,3.89-9V52.65H257.11C249.85,52.65,244.12,52.75,244.29,53Z"/><path d="M270.14,86l4.52.52L274,82c-.32-2.52-.84-7.26-1.27-10.63l-.73-5.9-4,3.37-4,3.37,2,2.53c1,1.47,3.36,4.52,5.05,6.84,3.36,4.63,3.14,4.53-6.2-2.32l-4.64-3.37-3.25,4L253.78,84l6,.63C263,85.07,267.73,85.6,270.14,86Z"/><path d="M235.75,43.93v-26h-5.57c-5.23,0-5.89.31-8.83,4l-3.27,4L226.92,35Z"/><path d="M210.23,33.17c-3.58,3-3.89,3.89-3.89,8.73v5.37l13.13.32c7.25.21,13.14.32,13.14.21s-4.18-4.11-9.24-8.95l-9.26-9Z"/><path d="M206.34,58.33c0,5.23.31,6,3.77,9L214,70.75l9.05-8.84c4.94-4.73,9.14-8.85,9.42-9s-5.57-.21-12.83-.21h-13.3Z"/><path d="M271.51,44.23c0,2.73.42,3.13,4,3.68,13.14,2.21,13,2.09,4.18,3.68-7.78,1.27-8.2,1.47-8.2,4.11a26.83,26.83,0,0,0,.63,5c.63,2.21,1.16,2,8.37-4A84.65,84.65,0,0,0,288.27,50c0-.1-3.26-2.95-7.26-6.21a83.9,83.9,0,0,0-7.77-5.89C272.46,37.91,271.51,41.17,271.51,44.23Z"/><path d="M255.22,78.65a14.31,14.31,0,0,0,2.62-4.11c-.1-.42-3.89-4.62-8.51-9.47L241,56.33V82.12h5.79C252,82.12,252.8,81.81,255.22,78.65Z"/><path d="M242.08,51.07c-.74-.85-1-1.58-.64-1.58s.11-.64-.63-1.37A2.71,2.71,0,0,0,237.15,47,2.75,2.75,0,0,0,236,48.12c-.74.73-1,1.37-.63,1.37s.11.73-.63,1.58c-1.36,1.58-.95,1.79,3.68,1.79S243.44,52.65,242.08,51.07Z"/><path d="M235.75,82.12V69.49c0-6.95-.1-12.64-.31-12.64s-4.1,4-8.74,8.85l-8.51,9,3.05,3.69c2.84,3.47,3.58,3.78,8.83,3.78Z"/><path d="M203.7,73.49a102.36,102.36,0,0,1-1.25,10.63c-.63,2.43-.42,2.43,4,1.91,2.52-.43,7.32-1,10.62-1.38l6-.63-3.26-4.1-3.25-4-4.64,3.37c-9.25,6.85-9.41,6.85-5.56,1.47,2-2.73,4.31-5.89,5-6.94,1.16-1.58.73-2.31-2.84-5.16l-4.1-3.26Z"/><path d="M245.17,92.24l6.27-7.79-4.74-.77c-2.62-.31-4.93-.52-5.15-.31A50.41,50.41,0,0,0,240,91.06c-.64,4-1.37,7.47-1.48,7.68-.42.32-.83-2.09-2.2-11.16-.74-4.73-.84-4.73-8.21-3.69l-2.83.43,6.41,7.9A83,83,0,0,0,238.4,100,86.07,86.07,0,0,0,245.17,92.24Z"/></g></g></svg>