<?xml version="1.0" encoding="utf-8"?>
<!-- Generator: Adobe Illustrator 23.0.3, SVG Export Plug-In . SVG Version: 6.00 Build 0)  -->
<svg version="1.1" id="Layer_1" xmlns="http://www.w3.org/2000/svg" xmlns:xlink="http://www.w3.org/1999/xlink" x="0px" y="0px"
	 viewBox="0 0 400 85" style="enable-background:new 0 0 400 85;" xml:space="preserve">
<style type="text/css">
	.st0{fill:#FFFFFF;}
</style>
<g>
	<g id="Layer_1-2">
		<path class="st0" d="M18.4,54.3c-2.6-0.8-7.4-1.1-14.3-0.7C1.2,53.8-0.4,54,0.4,54c3,0.2,3,0.1,3,15c0,13.2,0,13.3-1,13.9
			c-0.7,0.4-1.5,0.7-2.3,0.8c-0.7,0,1.8,0.2,5.8,0.4c10.7,0.5,15-0.6,19-4.9c2.5-2.7,3.7-5.5,4-9.4C29.5,62.5,25.6,56.7,18.4,54.3z
			 M11.2,83.6C6.7,83.3,6.9,84,6.7,69.4c-0.1-13.2,0-14,1.8-14.8c1-0.3,2.1-0.4,3.2-0.4C18.5,54,23.5,58.3,25,65.6
			C27.1,76,20.9,84.2,11.2,83.6z"/>
		<path class="st0" d="M121.3,83.7c-1-0.2-2-0.7-2.2-1.1c-0.6-0.7-0.9-5.5-1.4-18.6c-0.4-9.4-0.4-9.3,2.8-10
			c1.3-0.2,0.8-0.3-1.9-0.4c-2.5,0-3.6,0.1-3.8,0.5c-1.8,4.4-10.6,24.1-10.8,24.3c-0.2,0.2-2.8-4.9-5.8-11.3c-3-6.4-5.8-12-6.1-12.6
			c-0.6-0.9-1-1-4-0.9c-2.6,0-3,0.1-2.1,0.4c0.8,0.3,1.5,0.7,2.1,1.2C89,56,89,56.3,88.7,68.3c-0.2,8.5-0.4,12.7-0.8,13.4
			c-0.5,0.8-1.2,1.4-2.1,1.7c-1.4,0.4-1,0.5,3.5,0.5c3.6,0,4.6-0.1,3.5-0.3c-2.8-0.7-3-1.4-3-9.5c0-3.9,0.2-9,0.3-11.3l0.3-4.2
			l6,12.7c3.2,7,6.2,12.6,6.4,12.6c0.2,0,2.8-5.8,5.8-12.5c2.9-6.8,5.5-12.5,5.7-12.7c0.1-0.2,0.4,3.5,0.6,8.3
			c0.2,4.6,0.4,9.9,0.5,11.6c0.3,3.6-0.2,4.5-2.4,5c-1,0.2,0.4,0.3,4.3,0.3C120.9,84,122.4,83.9,121.3,83.7z"/>
		<path class="st0" d="M191,53.5c-3.7,0.2-3.8,0.2-2.4,0.7c2.4,0.7,2.6,2,2.6,14c0,5.8-0.1,10.5-0.3,10.5s-4.5-5.2-9.7-11.6
			c-5.2-6.4-9.7-12-10.2-12.5c-0.7-0.8-1.4-1-4.1-1.2c-2-0.1-3.4-0.1-3.4,0.2c0,0.3,0.3,0.4,0.7,0.4c0.7,0.1,1.4,0.4,2,0.7l1.3,0.7
			V68c0,13.9-0.1,14.3-2.6,15.2c-1.4,0.5-1.1,0.5,3.3,0.5c3.7,0,4.5-0.1,3.4-0.4c-2.7-0.8-2.8-1.2-2.7-14.3l0.1-11.8l11.5,13.8
			L192,85l0.2-14.3c0.2-15.6,0.3-16.1,2.7-16.6C197.3,53.7,195.1,53.3,191,53.5z"/>
		<path class="st0" d="M257,67.3c-5.6-3.6-6.6-4.7-6.9-7.4c-0.5-3.8,2.1-6.6,6.2-6.3c2.6,0.3,4.9,2.2,5.8,4.7
			c0.7,2.4,1.4,2.8,1.1,0.7c-0.1-1.1-0.2-2.1-0.3-3.2c0-1.2-0.2-1.5-1.5-2.1c-2.3-1-6.4-1.2-8.3-0.4c-4,1.5-5.7,3.5-5.7,7.4
			c0,3.2,1.4,5.2,5.8,7.9c6.4,3.9,8.8,7.3,7.9,11.2c-0.7,3.2-3.2,4.6-7,4c-1.7-0.2-2.4-0.7-3.8-2.2c-1.1-1.2-2.1-2.7-2.7-4.2
			c-0.9-2.3-0.9-2.3-0.9-0.8c0,1.3,0.1,2.6,0.3,3.9c0.3,2.3,0.3,2.4,2.3,3.2c2.7,1.2,7.5,1.2,10.2,0c4.9-2.1,6.6-7.6,3.7-11.7
			C262.4,71.3,259.8,69.2,257,67.3z"/>
		<path class="st0" d="M215.1,53.7c-1.4-0.3-2.9-0.4-4.4-0.4c-0.8,0-3.8,0.2-6.7,0.3c-2.8,0.1-4.4,0.3-3.6,0.4
			c2.8,0.2,2.8,0.1,2.8,14.8c0,7.4-0.2,13.6-0.4,13.9c-0.2,0.3-1.2,0.7-2.3,0.9c-1.4,0.3-0.1,0.4,5.6,0.6c4.1,0.2,8.5,0.1,9.7-0.1
			c5.1-0.9,9.4-4.1,11.6-8.8c1-2.1,1.1-3,1.1-6.9c0-4-0.1-4.6-1.3-6.8C224.8,57.2,220.7,54.5,215.1,53.7z M223.9,76.1
			c-2.1,4.5-5.7,7-10.8,7.5c-3,0.2-5.8-0.4-6.2-1.6c-0.3-0.9-0.3-26.1,0-26.6c0.3-0.4,0.8-0.7,1.2-0.8c1.6-0.7,7.4-0.2,9.3,0.8
			c2.5,1.3,4.9,3.9,6.3,7c1,2.3,1.2,3.2,1.2,7.1C225,73.2,224.9,74,223.9,76.1L223.9,76.1z"/>
		<path class="st0" d="M292.2,54.1c2.8,0.8,3,1.7,3,12.3V76l-1.3,2.6c-1.7,3.3-3.9,4.6-7.8,4.6c-4.2,0-7.1-1.6-8.9-5
			c-0.9-1.6-1-2.4-1.1-12.1c0-5.8,0.1-10.6,0.3-11c0.2-0.4,1.1-0.7,2.1-0.9c1.1-0.2-0.4-0.4-4.2-0.4c-3.7,0-5.4,0.1-4.2,0.4
			c0.9,0.2,1.8,0.5,2.1,0.7c0.2,0.2,0.4,5.1,0.5,11c0.1,10,0.2,10.7,1.1,12.7c1.2,2.5,3.8,4.9,6.2,5.5c6.7,2,12.3,0.2,15.2-4.7
			c1-1.9,1.1-2.3,1.3-12.4c0.2-10.3,0.2-10.5,1.3-11.6c0.5-0.6,1.2-1,2-1.3c0.5-0.1-1.2-0.2-3.9-0.2
			C291.9,53.7,291.2,53.8,292.2,54.1z"/>
		<path class="st0" d="M330.1,52.6c-0.4,0.7-1.4,0.8-12.7,0.8c-10.3,0-12.2-0.1-12.6-0.7c-0.2-0.4-0.5-0.5-0.6-0.4
			c-0.3,0.3-0.8,8.9-0.6,8.9c0.1,0,0.5-1,0.9-2.2c0.4-1.2,1.1-2.4,2-3.3c1.2-1,1.7-1.1,4.5-1.1c1.7,0,3.5,0.2,3.8,0.4
			c0.6,0.4,0.7,2.2,0.7,12.2c0.1,10.6-0.2,15.1-0.9,15.8c-0.8,0.3-1.5,0.5-2.4,0.6c-1.5,0.2-0.2,0.3,4.8,0.3c3.9,0,6.1-0.1,5-0.3
			c-3.3-0.6-3.2,0.1-3.2-14.8c0-9.8,0.1-13.4,0.5-13.8c0.7-0.7,6.4-0.7,7.8,0.1c1.2,0.6,1.8,1.7,2.6,4.6c0.4,1.4,0.4,1.3,0.7-1.7
			c0.2-1.6,0.2-3.1,0.2-4.7C330.5,52,330.5,51.9,330.1,52.6z"/>
		<path class="st0" d="M399.3,83.4c-1-0.5-1.8-1.2-2.5-2.1c-0.5-0.7-3.8-7.4-7.2-14.6c-3.3-7.3-6.5-13.4-6.7-13.6
			c-0.2-0.2-0.7,0.3-1,1.1c-7.1,17-11.6,27-12.4,27.9c-3.3,3.6-8.5,0.7-15.7-9c-1.8-2.5-3.3-4.6-3.4-4.8c-0.1-0.2,0.6-0.8,1.4-1.4
			c4.5-2.8,5.1-10.3,0.8-12.5c-1.9-1-4.6-1.1-11.6-0.7c-3.5,0.2-5.7,0.4-4.8,0.4c2.9,0.1,3,0.3,3,14.8c0,14.3,0,14.2-2.9,14.8
			c-1.1,0.2,0.4,0.3,4.4,0.3c3.7,0,5.6-0.1,4.5-0.3c-2.9-0.6-3-0.7-3-8.1v-6.6h5.2l1.7,2.5c2.6,3.9,6.6,9,8.4,10.8
			c1.9,1.8,1.9,1.8,14,1.7c4.5-0.1,5.4-0.2,4-0.5c-2.1-0.5-3.3-1.5-3.3-2.9c0-0.6,0.8-3,1.8-5.4l1.8-4.4h11.9l2.1,4.5
			c3.5,7.5,3.5,7.5,0.6,8.2c-1.4,0.3-0.5,0.4,4.2,0.4C400.5,84.1,400.7,84,399.3,83.4z M343.2,67.9c-0.9-0.3-0.9-0.6-0.9-6.1
			c0-4.5,0.1-6.1,0.7-6.9c0.8-1.2,3.7-1.3,6.2-0.3c3.8,1.6,4.3,9.3,0.9,12C348.7,67.7,344.8,68.6,343.2,67.9z M382.1,69.5
			c-2.8,0-5.2,0-5.3,0c-0.1-0.1,0.9-2.7,2.1-5.8c1.3-3,2.4-5.7,2.6-5.7c0.2,0,1.4,2.5,2.9,5.7l2.7,5.7L382.1,69.5z"/>
		<path class="st0" d="M81.3,83.3c-2.1-1-3-2.6-9.9-17.1C68,59.2,65.1,53.3,65,53.1c-0.4-0.4-0.2-0.9-6.1,13
			c-7,16.4-7.1,16.6-10.3,17.7c-0.7,0.2,1.4,0.3,5.1,0.3c4.8,0,5.8-0.1,4.2-0.4c-2.4-0.4-3.7-1.8-3.3-3.5c0.5-1.8,1.1-3.5,1.9-5.2
			l1.7-4h12l2.5,5.5c1.4,3,2.4,5.8,2.4,6.1c-0.1,0.3-1,0.8-2.1,1c-1.7,0.5-1.4,0.5,4,0.6C82.8,84.1,82.8,84.1,81.3,83.3z M64,69.6
			c-4.1,0-5.3-0.1-5.2-0.6c0.1-0.3,1.3-2.9,2.5-6l2.3-5.4l2.8,5.9c1.5,3.1,2.8,5.9,2.8,6C69.4,69.5,66.9,69.6,64,69.6z"/>
		<path class="st0" d="M43.1,53.3c-0.2,0-2.4,0.2-4.9,0.3c-2.4,0.1-3.8,0.3-3,0.4c2.9,0.2,2.8-0.3,2.7,15.1l-0.2,13.9l-2,0.5
			c-1.7,0.4-1.4,0.5,4.2,0.5c5.2,0,5.9-0.1,4.1-0.4c-1.1-0.3-2.1-0.7-2.3-1c-0.2-0.3-0.4-6.5-0.4-13.8c0-14.7,0-14.6,2.8-14.7
			c1.4,0,1.4,0,0.3-0.4C44.1,53.4,43.6,53.3,43.1,53.3z"/>
		<path class="st0" d="M150.4,54.5c-8.5-4.1-20,0.2-23.2,8.8c-1.4,3.6-1.1,9,0.6,12.8c2.6,5.7,7.7,8.7,14.4,8.6
			c9.8-0.1,17.3-7.8,16.7-17.1C158.5,61.7,155.4,56.9,150.4,54.5z M149.4,82.2c-2.8,1.7-7.5,1.9-10.6,0.6c-2.7-1.2-6-4.4-7.2-7.4
			c-1.4-3.3-2-7.7-1.4-11c0.9-5.3,3-8.3,7.1-9.8c1-0.4,2.8-0.6,5-0.5c6.9,0.3,11.4,4.6,12.8,12.3C156.2,73,153.9,79.5,149.4,82.2
			L149.4,82.2z"/>
	</g>
	<g>
		<path class="st0" d="M209.1,10.3l1.1-0.8c0.6-0.5,1.9-1.4,2.8-2.1c1.9-1.4,1.9-1.3-1,2.6l-1.4,2l1.7,1.4l1.6,1.4l0.5-4.2
			c0.3-2.3,0.3-4.2,0.2-4.3c-0.1-0.1-2.1,0-4.3,0.2l-4.1,0.4l1.5,1.7L209.1,10.3z"/>
		<path class="st0" d="M208.5,19.9h4.9v-2.3c0-2.2-0.1-2.5-1.6-3.6l-1.7-1.3l-3.9,3.9c-2.1,2.1-3.6,3.8-3.1,3.6
			C203.5,20,205.8,19.9,208.5,19.9z"/>
		<path class="st0" d="M201,7.5v11l3.7-3.8l3.7-3.8L207,9.1c-1.3-1.5-1.5-1.7-3.6-1.7L201,7.5z"/>
		<path class="st0" d="M196.7,7.1h2l0.3-2.1c0.2-1.1,0.4-2.7,0.6-3.4c0.3-1.2,0.3-1.2,0.7,0.9c0.7,4.8,0.6,4.6,2.7,4.6
			c1,0,1.9-0.2,1.9-0.5c0-0.3-1.1-1.8-2.4-3.5c-0.8-1.1-1.7-2.1-2.6-3c-0.3,0-5.1,6.2-5.1,6.6C194.8,6.9,195.7,7.1,196.7,7.1z"/>
		<path class="st0" d="M182.1,23.7c3,2.5,3.3,2.6,3.5,1.7c0.2-0.7,0.2-1.4,0.3-2.1c0-1.1-0.2-1.2-2.5-1.5c-4.1-0.5-4.6-0.9-1.7-1.3
			c3.9-0.4,4.2-0.6,4.2-2c0-0.7-0.1-1.3-0.3-1.9c-0.1-0.4-0.4-0.7-0.6-0.7c-0.2,0-5,3.8-6,4.7C178.9,20.9,180.2,22.3,182.1,23.7z"/>
		<path class="st0" d="M185.7,14.7l1.6-1.4l1.7-1.4l-1.4-1.9c-2.8-3.9-2.9-4-1-2.6c1,0.7,2.2,1.7,2.8,2.1l1.1,0.8l1.4-1.7l1.5-1.7
			l-1.3-0.1c-0.7-0.1-2.6-0.3-4.2-0.5c-1.6-0.2-3-0.2-3.1-0.1c-0.1,0.1,0.1,2.1,0.3,4.4L185.7,14.7z"/>
		<path class="st0" d="M202.3,22.2c0.1,0,1.8,1.7,3.9,3.7l3.8,3.6l1.6-1.4c1.5-1.2,1.6-1.5,1.6-3.7V22h-5.6
			C204.7,22.1,202.3,22.1,202.3,22.2z"/>
		<path class="st0" d="M213.2,36.1l1.9,0.2l-0.3-1.9c-0.1-1-0.3-3-0.5-4.4l-0.3-2.5l-1.7,1.4l-1.7,1.4l0.8,1.1
			c0.4,0.6,1.4,1.9,2.1,2.8c1.4,1.9,1.3,1.9-2.6-1l-1.9-1.4l-1.4,1.7l-1.4,1.7l2.5,0.3C210.2,35.7,212.2,35.9,213.2,36.1z"/>
		<path class="st0" d="M198.7,18.5v-11h-2.3c-2.2,0-2.4,0.1-3.7,1.7l-1.4,1.7l3.7,3.8L198.7,18.5z"/>
		<path class="st0" d="M188,13.9c-1.5,1.3-1.6,1.6-1.6,3.6v2.2l5.6,0.1c3,0.1,5.6,0.1,5.6,0.1s-1.7-1.7-3.8-3.7l-3.8-3.8L188,13.9z"
			/>
		<path class="st0" d="M186.4,24.4c0,2.2,0.1,2.5,1.6,3.8l1.6,1.4l3.8-3.7c2.1-2,3.8-3.7,3.9-3.8c0.1-0.1-2.3-0.1-5.4-0.1h-5.6v2.4
			H186.4z"/>
		<path class="st0" d="M213.8,18.6c0,1.1,0.2,1.3,1.7,1.5c5.6,0.9,5.5,0.9,1.7,1.5c-3.2,0.5-3.4,0.6-3.4,1.7c0,0.7,0.1,1.4,0.3,2.1
			c0.3,0.9,0.5,0.8,3.5-1.7c1.1-0.9,2.2-1.8,3.2-2.8c0,0-1.4-1.2-3-2.6c-1.6-1.4-3.1-2.4-3.2-2.4C214.2,15.9,213.8,17.3,213.8,18.6z
			"/>
		<path class="st0" d="M206.9,33c0.5-0.5,0.8-1.1,1.1-1.7c0-0.2-1.6-1.9-3.5-3.9l-3.5-3.6v10.8h2.4C205.5,34.4,205.9,34.3,206.9,33z
			"/>
		<path class="st0" d="M201.4,21.4c-0.3-0.4-0.4-0.7-0.3-0.7c0.1,0,0-0.3-0.3-0.6c-0.3-0.6-1-0.8-1.5-0.5c-0.2,0.1-0.4,0.3-0.5,0.5
			c-0.3,0.3-0.4,0.6-0.3,0.6c0.1,0,0,0.3-0.3,0.7c-0.6,0.7-0.4,0.7,1.5,0.7C201.8,22.2,202,22.1,201.4,21.4z"/>
		<path class="st0" d="M198.7,34.4v-5.3c0-2.9,0-5.3-0.1-5.3c-0.1,0-1.7,1.7-3.6,3.7l-3.5,3.7l1.3,1.5c1.2,1.4,1.5,1.6,3.7,1.6
			L198.7,34.4z"/>
		<path class="st0" d="M185.3,30.8c-0.1,1.5-0.3,3-0.5,4.4c-0.3,1-0.2,1,1.7,0.8c1-0.2,3-0.4,4.4-0.6l2.5-0.3l-1.4-1.7l-1.4-1.7
			l-1.9,1.4c-3.8,2.8-3.9,2.8-2.3,0.6c0.8-1.1,1.8-2.4,2.1-2.9c0.5-0.7,0.3-1-1.2-2.1l-1.7-1.4L185.3,30.8z"/>
		<path class="st0" d="M202.7,38.6l2.6-3.2l-2-0.3c-1.1-0.1-2.1-0.2-2.1-0.1c-0.3,1-0.5,2.1-0.7,3.2c-0.3,1.7-0.6,3.1-0.6,3.2
			c-0.2,0.1-0.3-0.9-0.9-4.6c-0.3-2-0.3-2-3.4-1.5l-1.2,0.2l2.7,3.3c0.9,1.1,1.8,2.2,2.8,3.2C200.9,40.9,201.8,39.9,202.7,38.6z"/>
	</g>
</g>
</svg>
