<svg width="2929" height="1753" viewBox="0 0 2929 1753" fill="none" xmlns="http://www.w3.org/2000/svg">
<path d="M103.339 101.15C106.502 97.987 106.502 92.8584 103.339 89.6952C100.176 86.5319 95.0472 86.5319 91.884 89.6952C88.7208 92.8584 88.7208 97.987 91.884 101.15C95.0472 104.313 100.176 104.313 103.339 101.15Z" fill="white" fill-opacity="0.15"/>
<path d="M292.9 103.5C297.4 103.5 301 99.9 301 95.4C301 90.9 297.4 87.3 292.9 87.3C288.4 87.3 284.8 90.9 284.8 95.4C284.8 99.9 288.4 103.5 292.9 103.5Z" fill="white" fill-opacity="0.15"/>
<path d="M494.023 100.963C497.089 97.7053 496.934 92.5789 493.676 89.5128C490.419 86.4466 485.292 86.6018 482.226 89.8594C479.16 93.1171 479.315 98.2435 482.573 101.31C485.831 104.376 490.957 104.221 494.023 100.963Z" fill="white" fill-opacity="0.15"/>
<path d="M685.136 103.263C689.491 102.239 692.19 97.8782 691.166 93.5237C690.142 89.1692 685.781 86.4697 681.427 87.4941C677.072 88.5185 674.372 92.879 675.397 97.2335C676.421 101.588 680.782 104.288 685.136 103.263Z" fill="white" fill-opacity="0.15"/>
<path d="M880.428 103.241C884.782 102.216 887.482 97.8558 886.457 93.5013C885.433 89.1468 881.072 86.4473 876.718 87.4717C872.363 88.4961 869.664 92.8566 870.688 97.2111C871.713 101.566 876.073 104.265 880.428 103.241Z" fill="white" fill-opacity="0.15"/>
<path d="M1073.8 103.5C1078.3 103.5 1081.9 99.9 1081.9 95.4C1081.9 90.9 1078.3 87.3 1073.8 87.3C1069.3 87.3 1065.7 90.9 1065.7 95.4C1065.7 99.9 1069.3 103.5 1073.8 103.5Z" fill="white" fill-opacity="0.15"/>
<path d="M1274.81 101.107C1277.97 97.9442 1277.97 92.8156 1274.81 89.6524C1271.65 86.4892 1266.52 86.4892 1263.35 89.6524C1260.19 92.8156 1260.19 97.9442 1263.35 101.107C1266.52 104.271 1271.65 104.271 1274.81 101.107Z" fill="white" fill-opacity="0.15"/>
<path d="M1464.3 103.5C1468.77 103.5 1472.4 99.8735 1472.4 95.4C1472.4 90.9265 1468.77 87.3 1464.3 87.3C1459.83 87.3 1456.2 90.9265 1456.2 95.4C1456.2 99.8735 1459.83 103.5 1464.3 103.5Z" fill="white" fill-opacity="0.15"/>
<path d="M1665.23 101.164C1668.39 98.0006 1668.39 92.872 1665.23 89.7088C1662.07 86.5456 1656.94 86.5456 1653.77 89.7088C1650.61 92.872 1650.61 98.0006 1653.77 101.164C1656.94 104.327 1662.07 104.327 1665.23 101.164Z" fill="white" fill-opacity="0.15"/>
<path d="M1854.8 103.5C1859.3 103.5 1862.9 99.9 1862.9 95.4C1862.9 90.9 1859.3 87.3 1854.8 87.3C1850.3 87.3 1846.7 90.9 1846.7 95.4C1846.7 99.9 1850.3 103.5 1854.8 103.5Z" fill="white" fill-opacity="0.15"/>
<path d="M2051.77 103.187C2056.12 102.159 2058.82 97.7966 2057.79 93.443C2056.76 89.0894 2052.4 86.3935 2048.04 87.4215C2043.69 88.4495 2040.99 92.8121 2042.02 97.1658C2043.05 101.519 2047.41 104.215 2051.77 103.187Z" fill="white" fill-opacity="0.15"/>
<path d="M2247.06 103.164C2251.41 102.136 2254.11 97.7735 2253.08 93.4199C2252.05 89.0663 2247.69 86.3703 2243.33 87.3983C2238.98 88.4263 2236.28 92.789 2237.31 97.1426C2238.34 101.496 2242.7 104.192 2247.06 103.164Z" fill="white" fill-opacity="0.15"/>
<path d="M2442.25 103.164C2446.6 102.136 2449.3 97.7732 2448.27 93.4196C2447.24 89.066 2442.88 86.37 2438.52 87.3981C2434.17 88.4261 2431.47 92.7888 2432.5 97.1424C2433.53 101.496 2437.89 104.192 2442.25 103.164Z" fill="white" fill-opacity="0.15"/>
<path d="M2635.7 103.5C2640.17 103.5 2643.8 99.8735 2643.8 95.4C2643.8 90.9265 2640.17 87.3 2635.7 87.3C2631.23 87.3 2627.6 90.9265 2627.6 95.4C2627.6 99.8735 2631.23 103.5 2635.7 103.5Z" fill="white" fill-opacity="0.15"/>
<path d="M2836.7 101.121C2839.86 97.9577 2839.86 92.8291 2836.7 89.6658C2833.54 86.5026 2828.41 86.5027 2825.25 89.6659C2822.08 92.8291 2822.08 97.9578 2825.25 101.121C2828.41 104.284 2833.54 104.284 2836.7 101.121Z" fill="white" fill-opacity="0.15"/>
<path d="M103.302 295.863C106.465 292.7 106.465 287.572 103.302 284.408C100.139 281.245 95.0104 281.245 91.8471 284.408C88.6839 287.572 88.6839 292.7 91.8471 295.863C95.0104 299.027 100.139 299.027 103.302 295.863Z" fill="white" fill-opacity="0.15"/>
<path d="M292.9 298.3C297.4 298.3 301 294.7 301 290.2C301 285.7 297.4 282.1 292.9 282.1C288.4 282.1 284.8 285.7 284.8 290.2C284.8 294.6 288.4 298.3 292.9 298.3Z" fill="white" fill-opacity="0.15"/>
<path d="M493.986 295.686C497.052 292.429 496.897 287.302 493.639 284.236C490.382 281.17 485.255 281.325 482.189 284.583C479.123 287.84 479.278 292.967 482.536 296.033C485.793 299.099 490.92 298.944 493.986 295.686Z" fill="white" fill-opacity="0.15"/>
<path d="M685.133 297.957C689.487 296.933 692.187 292.573 691.163 288.218C690.138 283.864 685.778 281.164 681.423 282.188C677.069 283.213 674.369 287.573 675.393 291.928C676.418 296.282 680.778 298.982 685.133 297.957Z" fill="white" fill-opacity="0.15"/>
<path d="M880.424 297.935C884.779 296.911 887.478 292.55 886.454 288.196C885.429 283.841 881.069 281.141 876.714 282.166C872.36 283.19 869.66 287.551 870.685 291.905C871.709 296.26 876.07 298.959 880.424 297.935Z" fill="white" fill-opacity="0.15"/>
<path d="M1073.8 298.3C1078.3 298.3 1081.9 294.7 1081.9 290.2C1081.9 285.7 1078.3 282.1 1073.8 282.1C1069.3 282.1 1065.7 285.7 1065.7 290.2C1065.7 294.6 1069.3 298.3 1073.8 298.3Z" fill="white" fill-opacity="0.15"/>
<path d="M1274.77 295.821C1277.94 292.657 1277.94 287.529 1274.77 284.366C1271.61 281.202 1266.48 281.202 1263.32 284.366C1260.16 287.529 1260.16 292.657 1263.32 295.821C1266.48 298.984 1271.61 298.984 1274.77 295.821Z" fill="white" fill-opacity="0.15"/>
<path d="M1464.3 298.2C1468.77 298.2 1472.4 294.573 1472.4 290.1C1472.4 285.626 1468.77 282 1464.3 282C1459.83 282 1456.2 285.626 1456.2 290.1C1456.2 294.573 1459.83 298.2 1464.3 298.2Z" fill="white" fill-opacity="0.15"/>
<path d="M1665.19 295.877C1668.36 292.714 1668.36 287.585 1665.19 284.422C1662.03 281.259 1656.9 281.259 1653.74 284.422C1650.57 287.585 1650.57 292.714 1653.74 295.877C1656.9 299.04 1662.03 299.04 1665.19 295.877Z" fill="white" fill-opacity="0.15"/>
<path d="M1854.8 298.3C1859.3 298.3 1862.9 294.7 1862.9 290.2C1862.9 285.7 1859.3 282.1 1854.8 282.1C1850.3 282.1 1846.7 285.7 1846.7 290.2C1846.7 294.6 1850.3 298.3 1854.8 298.3Z" fill="white" fill-opacity="0.15"/>
<path d="M2051.76 297.879C2056.12 296.851 2058.81 292.488 2057.79 288.135C2056.76 283.781 2052.4 281.085 2048.04 282.113C2043.69 283.141 2040.99 287.504 2042.02 291.858C2043.05 296.211 2047.41 298.907 2051.76 297.879Z" fill="white" fill-opacity="0.15"/>
<path d="M2247.05 297.856C2251.41 296.828 2254.1 292.465 2253.07 288.112C2252.05 283.758 2247.68 281.062 2243.33 282.09C2238.98 283.118 2236.28 287.481 2237.31 291.834C2238.34 296.188 2242.7 298.884 2247.05 297.856Z" fill="white" fill-opacity="0.15"/>
<path d="M2442.24 297.856C2446.6 296.828 2449.29 292.465 2448.27 288.111C2447.24 283.758 2442.88 281.062 2438.52 282.09C2434.17 283.118 2431.47 287.481 2432.5 291.834C2433.53 296.188 2437.89 298.884 2442.24 297.856Z" fill="white" fill-opacity="0.15"/>
<path d="M2635.7 298.2C2640.17 298.2 2643.8 294.573 2643.8 290.1C2643.8 285.626 2640.17 282 2635.7 282C2631.23 282 2627.6 285.626 2627.6 290.1C2627.6 294.573 2631.23 298.2 2635.7 298.2Z" fill="white" fill-opacity="0.15"/>
<path d="M2836.66 295.834C2839.83 292.671 2839.83 287.542 2836.66 284.379C2833.5 281.216 2828.37 281.216 2825.21 284.379C2822.05 287.542 2822.05 292.671 2825.21 295.834C2828.37 298.997 2833.5 298.997 2836.66 295.834Z" fill="white" fill-opacity="0.15"/>
<path d="M103.336 490.648C106.5 487.484 106.5 482.356 103.336 479.192C100.173 476.029 95.0445 476.029 91.8813 479.192C88.7181 482.356 88.7181 487.484 91.8813 490.647C95.0445 493.811 100.173 493.811 103.336 490.648Z" fill="white" fill-opacity="0.15"/>
<path d="M292.9 493C297.4 493 301 489.4 301 484.9C301 480.4 297.4 476.8 292.9 476.8C288.4 476.8 284.8 480.4 284.8 484.9C284.8 489.4 288.4 493 292.9 493Z" fill="white" fill-opacity="0.15"/>
<path d="M494.022 490.478C497.088 487.221 496.933 482.094 493.675 479.028C490.417 475.962 485.291 476.117 482.225 479.375C479.159 482.632 479.314 487.759 482.572 490.825C485.829 493.891 490.956 493.736 494.022 490.478Z" fill="white" fill-opacity="0.15"/>
<path d="M685.153 492.749C689.507 491.725 692.207 487.364 691.182 483.01C690.158 478.655 685.797 475.956 681.443 476.98C677.088 478.004 674.389 482.365 675.413 486.719C676.438 491.074 680.798 493.773 685.153 492.749Z" fill="white" fill-opacity="0.15"/>
<path d="M880.444 492.727C884.798 491.702 887.498 487.342 886.474 482.987C885.449 478.633 881.089 475.933 876.734 476.957C872.38 477.982 869.68 482.342 870.705 486.697C871.729 491.051 876.089 493.751 880.444 492.727Z" fill="white" fill-opacity="0.15"/>
<path d="M1073.8 493C1078.3 493 1081.9 489.4 1081.9 484.9C1081.9 480.4 1078.3 476.8 1073.8 476.8C1069.3 476.8 1065.7 480.4 1065.7 484.9C1065.7 489.4 1069.3 493 1073.8 493Z" fill="white" fill-opacity="0.15"/>
<path d="M1274.81 490.605C1277.97 487.442 1277.97 482.313 1274.81 479.15C1271.64 475.987 1266.52 475.987 1263.35 479.15C1260.19 482.313 1260.19 487.442 1263.35 490.605C1266.52 493.768 1271.64 493.768 1274.81 490.605Z" fill="white" fill-opacity="0.15"/>
<path d="M1464.3 493C1468.77 493 1472.4 489.373 1472.4 484.9C1472.4 480.426 1468.77 476.8 1464.3 476.8C1459.83 476.8 1456.2 480.426 1456.2 484.9C1456.2 489.373 1459.83 493 1464.3 493Z" fill="white" fill-opacity="0.15"/>
<path d="M1665.23 490.661C1668.39 487.498 1668.39 482.369 1665.23 479.206C1662.06 476.043 1656.94 476.043 1653.77 479.206C1650.61 482.369 1650.61 487.498 1653.77 490.661C1656.94 493.824 1662.06 493.824 1665.23 490.661Z" fill="white" fill-opacity="0.15"/>
<path d="M1854.8 493C1859.3 493 1862.9 489.4 1862.9 484.9C1862.9 480.4 1859.3 476.8 1854.8 476.8C1850.3 476.8 1846.7 480.4 1846.7 484.9C1846.7 489.4 1850.3 493 1854.8 493Z" fill="white" fill-opacity="0.15"/>
<path d="M2051.79 492.668C2056.14 491.64 2058.83 487.278 2057.81 482.924C2056.78 478.57 2052.42 475.874 2048.06 476.902C2043.71 477.93 2041.01 482.293 2042.04 486.647C2043.07 491 2047.43 493.696 2051.79 492.668Z" fill="white" fill-opacity="0.15"/>
<path d="M2247.07 492.645C2251.43 491.617 2254.12 487.254 2253.1 482.901C2252.07 478.547 2247.7 475.851 2243.35 476.879C2239 477.907 2236.3 482.27 2237.33 486.624C2238.36 490.977 2242.72 493.673 2247.07 492.645Z" fill="white" fill-opacity="0.15"/>
<path d="M2442.27 492.645C2446.62 491.617 2449.32 487.254 2448.29 482.901C2447.26 478.547 2442.9 475.851 2438.54 476.879C2434.19 477.907 2431.49 482.27 2432.52 486.623C2433.55 490.977 2437.91 493.673 2442.27 492.645Z" fill="white" fill-opacity="0.15"/>
<path d="M2635.7 493C2640.17 493 2643.8 489.373 2643.8 484.9C2643.8 480.426 2640.17 476.8 2635.7 476.8C2631.23 476.8 2627.6 480.426 2627.6 484.9C2627.6 489.373 2631.23 493 2635.7 493Z" fill="white" fill-opacity="0.15"/>
<path d="M2836.7 490.618C2839.86 487.455 2839.86 482.326 2836.7 479.163C2833.54 476 2828.41 476 2825.24 479.163C2822.08 482.326 2822.08 487.455 2825.24 490.618C2828.41 493.782 2833.54 493.781 2836.7 490.618Z" fill="white" fill-opacity="0.15"/>
<path d="M103.299 685.361C106.463 682.198 106.463 677.069 103.299 673.906C100.136 670.743 95.0077 670.743 91.8445 673.906C88.6812 677.069 88.6812 682.198 91.8444 685.361C95.0077 688.524 100.136 688.524 103.299 685.361Z" fill="white" fill-opacity="0.15"/>
<path d="M292.9 687.8C297.4 687.8 301 684.2 301 679.7C301 675.2 297.4 671.6 292.9 671.6C288.4 671.6 284.8 675.2 284.8 679.7C284.8 684.1 288.4 687.8 292.9 687.8Z" fill="white" fill-opacity="0.15"/>
<path d="M493.985 685.202C497.051 681.944 496.895 676.818 493.638 673.751C490.38 670.685 485.254 670.841 482.188 674.098C479.122 677.356 479.277 682.482 482.534 685.548C485.792 688.614 490.918 688.459 493.985 685.202Z" fill="white" fill-opacity="0.15"/>
<path d="M685.149 687.443C689.504 686.419 692.203 682.058 691.179 677.704C690.154 673.349 685.794 670.65 681.439 671.674C677.085 672.699 674.385 677.059 675.41 681.414C676.434 685.768 680.795 688.468 685.149 687.443Z" fill="white" fill-opacity="0.15"/>
<path d="M880.441 687.421C884.795 686.397 887.495 682.036 886.47 677.681C885.446 673.327 881.085 670.627 876.731 671.652C872.376 672.676 869.677 677.037 870.701 681.391C871.726 685.746 876.086 688.445 880.441 687.421Z" fill="white" fill-opacity="0.15"/>
<path d="M1073.8 687.8C1078.3 687.8 1081.9 684.2 1081.9 679.7C1081.9 675.2 1078.3 671.6 1073.8 671.6C1069.3 671.6 1065.7 675.2 1065.7 679.7C1065.7 684.1 1069.3 687.8 1073.8 687.8Z" fill="white" fill-opacity="0.15"/>
<path d="M1274.77 685.318C1277.93 682.155 1277.93 677.026 1274.77 673.863C1271.61 670.7 1266.48 670.7 1263.32 673.863C1260.15 677.026 1260.15 682.155 1263.32 685.318C1266.48 688.481 1271.61 688.481 1274.77 685.318Z" fill="white" fill-opacity="0.15"/>
<path d="M1464.3 687.7C1468.77 687.7 1472.4 684.074 1472.4 679.6C1472.4 675.126 1468.77 671.5 1464.3 671.5C1459.83 671.5 1456.2 675.126 1456.2 679.6C1456.2 684.074 1459.83 687.7 1464.3 687.7Z" fill="white" fill-opacity="0.15"/>
<path d="M1665.19 685.374C1668.35 682.211 1668.35 677.083 1665.19 673.919C1662.03 670.756 1656.9 670.756 1653.74 673.919C1650.57 677.083 1650.57 682.211 1653.74 685.374C1656.9 688.538 1662.03 688.538 1665.19 685.374Z" fill="white" fill-opacity="0.15"/>
<path d="M1854.8 687.8C1859.3 687.8 1862.9 684.2 1862.9 679.7C1862.9 675.2 1859.3 671.6 1854.8 671.6C1850.3 671.6 1846.7 675.2 1846.7 679.7C1846.7 684.1 1850.3 687.8 1854.8 687.8Z" fill="white" fill-opacity="0.15"/>
<path d="M2051.78 687.36C2056.14 686.332 2058.83 681.969 2057.8 677.616C2056.78 673.262 2052.41 670.566 2048.06 671.594C2043.71 672.622 2041.01 676.985 2042.04 681.339C2043.07 685.692 2047.43 688.388 2051.78 687.36Z" fill="white" fill-opacity="0.15"/>
<path d="M2247.07 687.337C2251.42 686.309 2254.12 681.946 2253.09 677.593C2252.06 673.239 2247.7 670.543 2243.35 671.571C2238.99 672.599 2236.3 676.962 2237.33 681.315C2238.35 685.669 2242.72 688.365 2247.07 687.337Z" fill="white" fill-opacity="0.15"/>
<path d="M2442.26 687.337C2446.62 686.309 2449.31 681.946 2448.28 677.592C2447.26 673.239 2442.89 670.543 2438.54 671.571C2434.19 672.599 2431.49 676.962 2432.52 681.315C2433.55 685.669 2437.91 688.365 2442.26 687.337Z" fill="white" fill-opacity="0.15"/>
<path d="M2635.7 687.7C2640.17 687.7 2643.8 684.074 2643.8 679.6C2643.8 675.126 2640.17 671.5 2635.7 671.5C2631.23 671.5 2627.6 675.126 2627.6 679.6C2627.6 684.074 2631.23 687.7 2635.7 687.7Z" fill="white" fill-opacity="0.15"/>
<path d="M2836.66 685.332C2839.82 682.169 2839.82 677.04 2836.66 673.877C2833.5 670.713 2828.37 670.713 2825.21 673.877C2822.04 677.04 2822.04 682.169 2825.21 685.332C2828.37 688.495 2833.5 688.495 2836.66 685.332Z" fill="white" fill-opacity="0.15"/>
<path d="M103.334 880.145C106.497 876.982 106.497 871.853 103.334 868.69C100.17 865.527 95.0418 865.527 91.8786 868.69C88.7154 871.853 88.7154 876.982 91.8787 880.145C95.0419 883.308 100.17 883.308 103.334 880.145Z" fill="white" fill-opacity="0.15"/>
<path d="M292.9 882.5C297.4 882.5 301 878.9 301 874.4C301 869.9 297.4 866.3 292.9 866.3C288.4 866.3 284.8 869.9 284.8 874.4C284.8 878.9 288.4 882.5 292.9 882.5Z" fill="white" fill-opacity="0.15"/>
<path d="M494.02 879.993C497.086 876.736 496.931 871.609 493.674 868.543C490.416 865.477 485.29 865.632 482.223 868.89C479.157 872.148 479.312 877.274 482.57 880.34C485.828 883.406 490.954 883.251 494.02 879.993Z" fill="white" fill-opacity="0.15"/>
<path d="M685.169 882.235C689.524 881.211 692.223 876.85 691.199 872.496C690.174 868.141 685.814 865.442 681.459 866.466C677.105 867.49 674.405 871.851 675.43 876.205C676.454 880.56 680.815 883.259 685.169 882.235Z" fill="white" fill-opacity="0.15"/>
<path d="M880.46 882.213C884.815 881.188 887.514 876.828 886.49 872.473C885.465 868.119 881.105 865.419 876.75 866.443C872.396 867.468 869.696 871.828 870.721 876.183C871.745 880.537 876.106 883.237 880.46 882.213Z" fill="white" fill-opacity="0.15"/>
<path d="M1073.8 882.5C1078.3 882.5 1081.9 878.9 1081.9 874.4C1081.9 869.9 1078.3 866.3 1073.8 866.3C1069.3 866.3 1065.7 869.9 1065.7 874.4C1065.7 878.9 1069.3 882.5 1073.8 882.5Z" fill="white" fill-opacity="0.15"/>
<path d="M1274.8 880.102C1277.97 876.939 1277.97 871.81 1274.8 868.647C1271.64 865.484 1266.51 865.484 1263.35 868.647C1260.19 871.81 1260.19 876.939 1263.35 880.102C1266.51 883.265 1271.64 883.265 1274.8 880.102Z" fill="white" fill-opacity="0.15"/>
<path d="M1464.3 882.5C1468.77 882.5 1472.4 878.874 1472.4 874.4C1472.4 869.927 1468.77 866.3 1464.3 866.3C1459.83 866.3 1456.2 869.927 1456.2 874.4C1456.2 878.874 1459.83 882.5 1464.3 882.5Z" fill="white" fill-opacity="0.15"/>
<path d="M1665.22 880.159C1668.39 876.995 1668.39 871.867 1665.22 868.704C1662.06 865.54 1656.93 865.54 1653.77 868.704C1650.61 871.867 1650.61 876.995 1653.77 880.159C1656.93 883.322 1662.06 883.322 1665.22 880.159Z" fill="white" fill-opacity="0.15"/>
<path d="M1854.8 882.5C1859.3 882.5 1862.9 878.9 1862.9 874.4C1862.9 869.9 1859.3 866.3 1854.8 866.3C1850.3 866.3 1846.7 869.9 1846.7 874.4C1846.7 878.9 1850.3 882.5 1854.8 882.5Z" fill="white" fill-opacity="0.15"/>
<path d="M2051.8 882.149C2056.16 881.121 2058.85 876.759 2057.82 872.405C2056.8 868.052 2052.43 865.356 2048.08 866.384C2043.73 867.412 2041.03 871.774 2042.06 876.128C2043.09 880.482 2047.45 883.177 2051.8 882.149Z" fill="white" fill-opacity="0.15"/>
<path d="M2247.09 882.126C2251.45 881.098 2254.14 876.736 2253.11 872.382C2252.09 868.028 2247.72 865.332 2243.37 866.36C2239.02 867.388 2236.32 871.751 2237.35 876.105C2238.38 880.458 2242.74 883.154 2247.09 882.126Z" fill="white" fill-opacity="0.15"/>
<path d="M2442.28 882.126C2446.64 881.098 2449.33 876.735 2448.31 872.382C2447.28 868.028 2442.91 865.332 2438.56 866.36C2434.21 867.388 2431.51 871.751 2432.54 876.104C2433.57 880.458 2437.93 883.154 2442.28 882.126Z" fill="white" fill-opacity="0.15"/>
<path d="M2635.7 882.5C2640.17 882.5 2643.8 878.874 2643.8 874.4C2643.8 869.927 2640.17 866.3 2635.7 866.3C2631.23 866.3 2627.6 869.927 2627.6 874.4C2627.6 878.874 2631.23 882.5 2635.7 882.5Z" fill="white" fill-opacity="0.15"/>
<path d="M2836.7 880.116C2839.86 876.953 2839.86 871.824 2836.7 868.661C2833.53 865.497 2828.4 865.498 2825.24 868.661C2822.08 871.824 2822.08 876.953 2825.24 880.116C2828.4 883.279 2833.53 883.279 2836.7 880.116Z" fill="white" fill-opacity="0.15"/>
<path d="M103.297 1074.86C106.46 1071.7 106.46 1066.57 103.297 1063.4C100.134 1060.24 95.005 1060.24 91.8418 1063.4C88.6786 1066.57 88.6785 1071.7 91.8418 1074.86C95.005 1078.02 100.134 1078.02 103.297 1074.86Z" fill="white" fill-opacity="0.15"/>
<path d="M292.9 1077.3C297.4 1077.3 301 1073.7 301 1069.2C301 1064.7 297.4 1061.1 292.9 1061.1C288.4 1061.1 284.8 1064.7 284.8 1069.2C284.8 1073.6 288.4 1077.3 292.9 1077.3Z" fill="white" fill-opacity="0.15"/>
<path d="M493.983 1074.72C497.049 1071.46 496.894 1066.33 493.636 1063.27C490.379 1060.2 485.252 1060.36 482.186 1063.61C479.12 1066.87 479.275 1072 482.533 1075.06C485.791 1078.13 490.917 1077.97 493.983 1074.72Z" fill="white" fill-opacity="0.15"/>
<path d="M685.166 1076.93C689.52 1075.9 692.22 1071.54 691.195 1067.19C690.171 1062.84 685.81 1060.14 681.456 1061.16C677.101 1062.18 674.402 1066.55 675.426 1070.9C676.451 1075.25 680.811 1077.95 685.166 1076.93Z" fill="white" fill-opacity="0.15"/>
<path d="M880.457 1076.91C884.811 1075.88 887.511 1071.52 886.487 1067.17C885.462 1062.81 881.102 1060.11 876.747 1061.14C872.393 1062.16 869.693 1066.52 870.717 1070.88C871.742 1075.23 876.102 1077.93 880.457 1076.91Z" fill="white" fill-opacity="0.15"/>
<path d="M1073.8 1077.3C1078.3 1077.3 1081.9 1073.7 1081.9 1069.2C1081.9 1064.7 1078.3 1061.1 1073.8 1061.1C1069.3 1061.1 1065.7 1064.7 1065.7 1069.2C1065.7 1073.6 1069.3 1077.3 1073.8 1077.3Z" fill="white" fill-opacity="0.15"/>
<path d="M1274.77 1074.82C1277.93 1071.65 1277.93 1066.52 1274.77 1063.36C1271.6 1060.2 1266.48 1060.2 1263.31 1063.36C1260.15 1066.52 1260.15 1071.65 1263.31 1074.82C1266.48 1077.98 1271.6 1077.98 1274.77 1074.82Z" fill="white" fill-opacity="0.15"/>
<path d="M1464.3 1077.2C1468.77 1077.2 1472.4 1073.57 1472.4 1069.1C1472.4 1064.63 1468.77 1061 1464.3 1061C1459.83 1061 1456.2 1064.63 1456.2 1069.1C1456.2 1073.57 1459.83 1077.2 1464.3 1077.2Z" fill="white" fill-opacity="0.15"/>
<path d="M1665.19 1074.87C1668.35 1071.71 1668.35 1066.58 1665.19 1063.42C1662.02 1060.25 1656.9 1060.25 1653.73 1063.42C1650.57 1066.58 1650.57 1071.71 1653.73 1074.87C1656.9 1078.04 1662.02 1078.04 1665.19 1074.87Z" fill="white" fill-opacity="0.15"/>
<path d="M1854.8 1077.3C1859.3 1077.3 1862.9 1073.7 1862.9 1069.2C1862.9 1064.7 1859.3 1061.1 1854.8 1061.1C1850.3 1061.1 1846.7 1064.7 1846.7 1069.2C1846.7 1073.6 1850.3 1077.3 1854.8 1077.3Z" fill="white" fill-opacity="0.15"/>
<path d="M2051.8 1076.84C2056.15 1075.81 2058.85 1071.45 2057.82 1067.1C2056.79 1062.74 2052.43 1060.05 2048.08 1061.08C2043.72 1062.1 2041.03 1066.47 2042.06 1070.82C2043.08 1075.17 2047.45 1077.87 2051.8 1076.84Z" fill="white" fill-opacity="0.15"/>
<path d="M2247.09 1076.82C2251.44 1075.79 2254.14 1071.43 2253.11 1067.07C2252.08 1062.72 2247.72 1060.02 2243.37 1061.05C2239.01 1062.08 2236.32 1066.44 2237.34 1070.8C2238.37 1075.15 2242.74 1077.85 2247.09 1076.82Z" fill="white" fill-opacity="0.15"/>
<path d="M2442.28 1076.82C2446.63 1075.79 2449.33 1071.43 2448.3 1067.07C2447.27 1062.72 2442.91 1060.02 2438.56 1061.05C2434.2 1062.08 2431.51 1066.44 2432.54 1070.8C2433.56 1075.15 2437.93 1077.85 2442.28 1076.82Z" fill="white" fill-opacity="0.15"/>
<path d="M2635.7 1077.2C2640.17 1077.2 2643.8 1073.57 2643.8 1069.1C2643.8 1064.63 2640.17 1061 2635.7 1061C2631.23 1061 2627.6 1064.63 2627.6 1069.1C2627.6 1073.57 2631.23 1077.2 2635.7 1077.2Z" fill="white" fill-opacity="0.15"/>
<path d="M2836.66 1074.83C2839.82 1071.67 2839.82 1066.54 2836.66 1063.37C2833.5 1060.21 2828.37 1060.21 2825.2 1063.37C2822.04 1066.54 2822.04 1071.67 2825.2 1074.83C2828.37 1077.99 2833.49 1077.99 2836.66 1074.83Z" fill="white" fill-opacity="0.15"/>
<path d="M103.331 1269.64C106.494 1266.48 106.494 1261.35 103.331 1258.19C100.168 1255.02 95.0392 1255.02 91.8759 1258.19C88.7127 1261.35 88.7127 1266.48 91.8759 1269.64C95.0391 1272.81 100.168 1272.81 103.331 1269.64Z" fill="white" fill-opacity="0.15"/>
<path d="M292.9 1272C297.4 1272 301 1268.4 301 1263.9C301 1259.4 297.4 1255.8 292.9 1255.8C288.4 1255.8 284.8 1259.4 284.8 1263.9C284.8 1268.4 288.4 1272 292.9 1272Z" fill="white" fill-opacity="0.15"/>
<path d="M494.019 1269.51C497.085 1266.25 496.93 1261.12 493.672 1258.06C490.415 1254.99 485.288 1255.15 482.222 1258.41C479.156 1261.66 479.311 1266.79 482.569 1269.86C485.826 1272.92 490.953 1272.77 494.019 1269.51Z" fill="white" fill-opacity="0.15"/>
<path d="M685.185 1271.72C689.54 1270.7 692.239 1266.34 691.215 1261.98C690.191 1257.63 685.83 1254.93 681.476 1255.95C677.121 1256.98 674.422 1261.34 675.446 1265.69C676.47 1270.05 680.831 1272.75 685.185 1271.72Z" fill="white" fill-opacity="0.15"/>
<path d="M880.477 1271.7C884.831 1270.67 887.531 1266.31 886.506 1261.96C885.482 1257.6 881.121 1254.9 876.767 1255.93C872.412 1256.95 869.713 1261.31 870.737 1265.67C871.762 1270.02 876.122 1272.72 880.477 1271.7Z" fill="white" fill-opacity="0.15"/>
<path d="M1073.8 1272C1078.3 1272 1081.9 1268.4 1081.9 1263.9C1081.9 1259.4 1078.3 1255.8 1073.8 1255.8C1069.3 1255.8 1065.7 1259.4 1065.7 1263.9C1065.7 1268.4 1069.3 1272 1073.8 1272Z" fill="white" fill-opacity="0.15"/>
<path d="M1274.8 1269.6C1277.97 1266.44 1277.97 1261.31 1274.8 1258.14C1271.64 1254.98 1266.51 1254.98 1263.35 1258.14C1260.18 1261.31 1260.18 1266.44 1263.35 1269.6C1266.51 1272.76 1271.64 1272.76 1274.8 1269.6Z" fill="white" fill-opacity="0.15"/>
<path d="M1464.3 1272C1468.77 1272 1472.4 1268.37 1472.4 1263.9C1472.4 1259.43 1468.77 1255.8 1464.3 1255.8C1459.83 1255.8 1456.2 1259.43 1456.2 1263.9C1456.2 1268.37 1459.83 1272 1464.3 1272Z" fill="white" fill-opacity="0.15"/>
<path d="M1665.22 1269.66C1668.38 1266.49 1668.38 1261.36 1665.22 1258.2C1662.06 1255.04 1656.93 1255.04 1653.77 1258.2C1650.6 1261.36 1650.6 1266.49 1653.77 1269.66C1656.93 1272.82 1662.06 1272.82 1665.22 1269.66Z" fill="white" fill-opacity="0.15"/>
<path d="M1854.8 1272C1859.3 1272 1862.9 1268.4 1862.9 1263.9C1862.9 1259.4 1859.3 1255.8 1854.8 1255.8C1850.3 1255.8 1846.7 1259.4 1846.7 1263.9C1846.7 1268.4 1850.3 1272 1854.8 1272Z" fill="white" fill-opacity="0.15"/>
<path d="M2051.82 1271.63C2056.17 1270.6 2058.87 1266.24 2057.84 1261.89C2056.81 1257.53 2052.45 1254.84 2048.1 1255.86C2043.74 1256.89 2041.05 1261.26 2042.08 1265.61C2043.1 1269.96 2047.47 1272.66 2051.82 1271.63Z" fill="white" fill-opacity="0.15"/>
<path d="M2247.11 1271.61C2251.46 1270.58 2254.16 1266.22 2253.13 1261.86C2252.1 1257.51 2247.74 1254.81 2243.39 1255.84C2239.03 1256.87 2236.34 1261.23 2237.37 1265.59C2238.39 1269.94 2242.76 1272.64 2247.11 1271.61Z" fill="white" fill-opacity="0.15"/>
<path d="M2442.3 1271.61C2446.65 1270.58 2449.35 1266.22 2448.32 1261.86C2447.29 1257.51 2442.93 1254.81 2438.58 1255.84C2434.22 1256.87 2431.53 1261.23 2432.56 1265.59C2433.58 1269.94 2437.95 1272.63 2442.3 1271.61Z" fill="white" fill-opacity="0.15"/>
<path d="M2635.7 1272C2640.17 1272 2643.8 1268.37 2643.8 1263.9C2643.8 1259.43 2640.17 1255.8 2635.7 1255.8C2631.23 1255.8 2627.6 1259.43 2627.6 1263.9C2627.6 1268.37 2631.23 1272 2635.7 1272Z" fill="white" fill-opacity="0.15"/>
<path d="M2836.69 1269.61C2839.86 1266.45 2839.86 1261.32 2836.69 1258.16C2833.53 1254.99 2828.4 1254.99 2825.24 1258.16C2822.07 1261.32 2822.07 1266.45 2825.24 1269.61C2828.4 1272.78 2833.53 1272.78 2836.69 1269.61Z" fill="white" fill-opacity="0.15"/>
<path d="M103.294 1464.36C106.458 1461.19 106.458 1456.06 103.294 1452.9C100.131 1449.74 95.0025 1449.74 91.8393 1452.9C88.6761 1456.06 88.6761 1461.19 91.8393 1464.36C95.0025 1467.52 100.131 1467.52 103.294 1464.36Z" fill="white" fill-opacity="0.15"/>
<path d="M292.9 1466.8C297.4 1466.8 301 1463.2 301 1458.7C301 1454.2 297.4 1450.6 292.9 1450.6C288.4 1450.6 284.8 1454.2 284.8 1458.7C284.8 1463.1 288.4 1466.8 292.9 1466.8Z" fill="white" fill-opacity="0.15"/>
<path d="M493.982 1464.23C497.048 1460.97 496.893 1455.85 493.635 1452.78C490.377 1449.72 485.251 1449.87 482.185 1453.13C479.119 1456.39 479.274 1461.51 482.531 1464.58C485.789 1467.64 490.915 1467.49 493.982 1464.23Z" fill="white" fill-opacity="0.15"/>
<path d="M685.182 1466.41C689.536 1465.39 692.236 1461.03 691.212 1456.68C690.187 1452.32 685.827 1449.62 681.472 1450.65C677.118 1451.67 674.418 1456.03 675.443 1460.39C676.467 1464.74 680.827 1467.44 685.182 1466.41Z" fill="white" fill-opacity="0.15"/>
<path d="M880.473 1466.39C884.828 1465.37 887.527 1461.01 886.503 1456.65C885.478 1452.3 881.118 1449.6 876.763 1450.62C872.409 1451.65 869.709 1456.01 870.734 1460.36C871.758 1464.72 876.119 1467.42 880.473 1466.39Z" fill="white" fill-opacity="0.15"/>
<path d="M1073.8 1466.8C1078.3 1466.8 1081.9 1463.2 1081.9 1458.7C1081.9 1454.2 1078.3 1450.6 1073.8 1450.6C1069.3 1450.6 1065.7 1454.2 1065.7 1458.7C1065.7 1463.1 1069.3 1466.8 1073.8 1466.8Z" fill="white" fill-opacity="0.15"/>
<path d="M1274.77 1464.31C1277.93 1461.15 1277.93 1456.02 1274.77 1452.86C1271.6 1449.69 1266.47 1449.69 1263.31 1452.86C1260.15 1456.02 1260.15 1461.15 1263.31 1464.31C1266.47 1467.48 1271.6 1467.48 1274.77 1464.31Z" fill="white" fill-opacity="0.15"/>
<path d="M1464.3 1466.7C1468.77 1466.7 1472.4 1463.07 1472.4 1458.6C1472.4 1454.13 1468.77 1450.5 1464.3 1450.5C1459.83 1450.5 1456.2 1454.13 1456.2 1458.6C1456.2 1463.07 1459.83 1466.7 1464.3 1466.7Z" fill="white" fill-opacity="0.15"/>
<path d="M1665.18 1464.37C1668.35 1461.21 1668.35 1456.08 1665.18 1452.91C1662.02 1449.75 1656.89 1449.75 1653.73 1452.91C1650.57 1456.08 1650.57 1461.21 1653.73 1464.37C1656.89 1467.53 1662.02 1467.53 1665.18 1464.37Z" fill="white" fill-opacity="0.15"/>
<path d="M1854.8 1466.8C1859.3 1466.8 1862.9 1463.2 1862.9 1458.7C1862.9 1454.2 1859.3 1450.6 1854.8 1450.6C1850.3 1450.6 1846.7 1454.2 1846.7 1458.7C1846.7 1463.1 1850.3 1466.8 1854.8 1466.8Z" fill="white" fill-opacity="0.15"/>
<path d="M2051.82 1466.32C2056.17 1465.29 2058.87 1460.93 2057.84 1456.58C2056.81 1452.22 2052.45 1449.53 2048.1 1450.56C2043.74 1451.58 2041.05 1455.95 2042.07 1460.3C2043.1 1464.65 2047.46 1467.35 2051.82 1466.32Z" fill="white" fill-opacity="0.15"/>
<path d="M2247.11 1466.3C2251.46 1465.27 2254.16 1460.91 2253.13 1456.55C2252.1 1452.2 2247.74 1449.51 2243.38 1450.53C2239.03 1451.56 2236.33 1455.92 2237.36 1460.28C2238.39 1464.63 2242.75 1467.33 2247.11 1466.3Z" fill="white" fill-opacity="0.15"/>
<path d="M2442.3 1466.3C2446.65 1465.27 2449.35 1460.91 2448.32 1456.55C2447.29 1452.2 2442.93 1449.5 2438.58 1450.53C2434.22 1451.56 2431.53 1455.92 2432.55 1460.28C2433.58 1464.63 2437.95 1467.33 2442.3 1466.3Z" fill="white" fill-opacity="0.15"/>
<path d="M2635.7 1466.7C2640.17 1466.7 2643.8 1463.07 2643.8 1458.6C2643.8 1454.13 2640.17 1450.5 2635.7 1450.5C2631.23 1450.5 2627.6 1454.13 2627.6 1458.6C2627.6 1463.07 2631.23 1466.7 2635.7 1466.7Z" fill="white" fill-opacity="0.15"/>
<path d="M2836.66 1464.33C2839.82 1461.16 2839.82 1456.03 2836.66 1452.87C2833.49 1449.71 2828.36 1449.71 2825.2 1452.87C2822.04 1456.03 2822.04 1461.16 2825.2 1464.33C2828.36 1467.49 2833.49 1467.49 2836.66 1464.33Z" fill="white" fill-opacity="0.15"/>
<path d="M103.328 1659.14C106.491 1655.98 106.491 1650.85 103.328 1647.68C100.165 1644.52 95.0365 1644.52 91.8733 1647.68C88.71 1650.85 88.71 1655.98 91.8732 1659.14C95.0365 1662.3 100.165 1662.3 103.328 1659.14Z" fill="white" fill-opacity="0.15"/>
<path d="M292.9 1661.5C297.4 1661.5 301 1657.9 301 1653.4C301 1648.9 297.4 1645.3 292.9 1645.3C288.4 1645.3 284.8 1648.9 284.8 1653.4C284.8 1657.9 288.4 1661.5 292.9 1661.5Z" fill="white" fill-opacity="0.15"/>
<path d="M494.017 1659.02C497.084 1655.77 496.928 1650.64 493.671 1647.57C490.413 1644.51 485.287 1644.66 482.221 1647.92C479.155 1651.18 479.31 1656.3 482.567 1659.37C485.825 1662.44 490.951 1662.28 494.017 1659.02Z" fill="white" fill-opacity="0.15"/>
<path d="M685.202 1661.21C689.556 1660.18 692.256 1655.82 691.231 1651.47C690.207 1647.11 685.846 1644.41 681.492 1645.44C677.137 1646.46 674.438 1650.82 675.462 1655.18C676.487 1659.53 680.847 1662.23 685.202 1661.21Z" fill="white" fill-opacity="0.15"/>
<path d="M880.493 1661.18C884.847 1660.16 887.547 1655.8 886.522 1651.44C885.498 1647.09 881.137 1644.39 876.783 1645.42C872.428 1646.44 869.729 1650.8 870.753 1655.15C871.778 1659.51 876.138 1662.21 880.493 1661.18Z" fill="white" fill-opacity="0.15"/>
<path d="M1073.8 1661.5C1078.3 1661.5 1081.9 1657.9 1081.9 1653.4C1081.9 1648.9 1078.3 1645.3 1073.8 1645.3C1069.3 1645.3 1065.7 1648.9 1065.7 1653.4C1065.7 1657.9 1069.3 1661.5 1073.8 1661.5Z" fill="white" fill-opacity="0.15"/>
<path d="M1274.8 1659.1C1277.96 1655.93 1277.96 1650.81 1274.8 1647.64C1271.64 1644.48 1266.51 1644.48 1263.34 1647.64C1260.18 1650.81 1260.18 1655.93 1263.34 1659.1C1266.51 1662.26 1271.64 1662.26 1274.8 1659.1Z" fill="white" fill-opacity="0.15"/>
<path d="M1464.3 1661.5C1468.77 1661.5 1472.4 1657.87 1472.4 1653.4C1472.4 1648.93 1468.77 1645.3 1464.3 1645.3C1459.83 1645.3 1456.2 1648.93 1456.2 1653.4C1456.2 1657.87 1459.83 1661.5 1464.3 1661.5Z" fill="white" fill-opacity="0.15"/>
<path d="M1665.22 1659.15C1668.38 1655.99 1668.38 1650.86 1665.22 1647.7C1662.06 1644.53 1656.93 1644.53 1653.76 1647.7C1650.6 1650.86 1650.6 1655.99 1653.76 1659.15C1656.93 1662.32 1662.06 1662.32 1665.22 1659.15Z" fill="white" fill-opacity="0.15"/>
<path d="M1854.8 1661.5C1859.3 1661.5 1862.9 1657.9 1862.9 1653.4C1862.9 1648.9 1859.3 1645.3 1854.8 1645.3C1850.3 1645.3 1846.7 1648.9 1846.7 1653.4C1846.7 1657.9 1850.3 1661.5 1854.8 1661.5Z" fill="white" fill-opacity="0.15"/>
<path d="M2051.84 1661.11C2056.19 1660.08 2058.89 1655.72 2057.86 1651.37C2056.83 1647.01 2052.47 1644.32 2048.12 1645.35C2043.76 1646.37 2041.07 1650.74 2042.09 1655.09C2043.12 1659.44 2047.48 1662.14 2051.84 1661.11Z" fill="white" fill-opacity="0.15"/>
<path d="M2247.13 1661.09C2251.48 1660.06 2254.18 1655.7 2253.15 1651.34C2252.12 1646.99 2247.76 1644.29 2243.4 1645.32C2239.05 1646.35 2236.35 1650.71 2237.38 1655.07C2238.41 1659.42 2242.77 1662.12 2247.13 1661.09Z" fill="white" fill-opacity="0.15"/>
<path d="M2442.32 1661.09C2446.67 1660.06 2449.37 1655.7 2448.34 1651.34C2447.31 1646.99 2442.95 1644.29 2438.6 1645.32C2434.24 1646.35 2431.55 1650.71 2432.57 1655.07C2433.6 1659.42 2437.97 1662.12 2442.32 1661.09Z" fill="white" fill-opacity="0.15"/>
<path d="M2635.7 1661.5C2640.17 1661.5 2643.8 1657.87 2643.8 1653.4C2643.8 1648.93 2640.17 1645.3 2635.7 1645.3C2631.23 1645.3 2627.6 1648.93 2627.6 1653.4C2627.6 1657.87 2631.23 1661.5 2635.7 1661.5Z" fill="white" fill-opacity="0.15"/>
<path d="M2836.69 1659.11C2839.85 1655.95 2839.85 1650.82 2836.69 1647.66C2833.53 1644.49 2828.4 1644.49 2825.24 1647.66C2822.07 1650.82 2822.07 1655.95 2825.24 1659.11C2828.4 1662.27 2833.53 1662.27 2836.69 1659.11Z" fill="white" fill-opacity="0.15"/>
</svg>
