<?xml version="1.0" encoding="utf-8"?>
<!-- Generator: Adobe Illustrator 23.0.3, SVG Export Plug-In . SVG Version: 6.00 Build 0)  -->
<svg version="1.1" id="Layer_1" xmlns="http://www.w3.org/2000/svg" xmlns:xlink="http://www.w3.org/1999/xlink" x="0px" y="0px"
	 viewBox="0 0 2928.6 1752.7" style="enable-background:new 0 0 2928.6 1752.7;" xml:space="preserve">
<style type="text/css">
	.st0{fill:#FFFFFF;}
</style>
<g>
	<g>
		<ellipse transform="matrix(0.7071 -0.7071 0.7071 0.7071 -38.8588 96.9783)" class="st0" cx="97.6" cy="95.4" rx="8.1" ry="8.1"/>
		<path class="st0" d="M292.9,103.5c4.5,0,8.1-3.6,8.1-8.1c0-4.5-3.6-8.1-8.1-8.1c-4.5,0-8.1,3.6-8.1,8.1
			C284.8,99.9,288.4,103.5,292.9,103.5z"/>
		
			<ellipse transform="matrix(0.6854 -0.7282 0.7282 0.6854 84.1107 385.4585)" class="st0" cx="488.1" cy="95.4" rx="8.1" ry="8.1"/>
		<ellipse transform="matrix(0.9734 -0.229 0.229 0.9734 -3.6894 158.992)" class="st0" cx="683.3" cy="95.4" rx="8.1" ry="8.1"/>
		<ellipse transform="matrix(0.9734 -0.229 0.229 0.9734 1.4968 203.6933)" class="st0" cx="878.6" cy="95.4" rx="8.1" ry="8.1"/>
		<path class="st0" d="M1073.8,103.5c4.5,0,8.1-3.6,8.1-8.1c0-4.5-3.6-8.1-8.1-8.1c-4.5,0-8.1,3.6-8.1,8.1
			C1065.7,99.9,1069.3,103.5,1073.8,103.5z"/>
		
			<ellipse transform="matrix(0.7071 -0.7071 0.7071 0.7071 304.2446 925.3032)" class="st0" cx="1269.1" cy="95.4" rx="8.1" ry="8.1"/>
		<circle class="st0" cx="1464.3" cy="95.4" r="8.1"/>
		
			<ellipse transform="matrix(0.7071 -0.7071 0.7071 0.7071 418.6123 1201.4114)" class="st0" cx="1659.5" cy="95.4" rx="8.1" ry="8.1"/>
		<path class="st0" d="M1854.8,103.5c4.5,0,8.1-3.6,8.1-8.1c0-4.5-3.6-8.1-8.1-8.1c-4.5,0-8.1,3.6-8.1,8.1
			C1846.7,99.9,1850.3,103.5,1854.8,103.5z"/>
		<ellipse transform="matrix(0.9732 -0.2298 0.2298 0.9732 32.9229 473.5511)" class="st0" cx="2050" cy="95.4" rx="8.1" ry="8.1"/>
		
			<ellipse transform="matrix(0.9732 -0.2298 0.2298 0.9732 38.1458 518.4079)" class="st0" cx="2245.3" cy="95.4" rx="8.1" ry="8.1"/>
		
			<ellipse transform="matrix(0.9732 -0.2298 0.2298 0.9732 43.3687 563.2646)" class="st0" cx="2440.5" cy="95.4" rx="8.1" ry="8.1"/>
		<circle class="st0" cx="2635.7" cy="95.4" r="8.1"/>
		
			<ellipse transform="matrix(0.7071 -0.7071 0.7071 0.7071 761.7157 2029.7362)" class="st0" cx="2831" cy="95.4" rx="8.1" ry="8.1"/>
	</g>
	<g>
		
			<ellipse transform="matrix(0.7071 -0.7071 0.7071 0.7071 -176.5679 154.0192)" class="st0" cx="97.6" cy="290.1" rx="8.1" ry="8.1"/>
		<path class="st0" d="M292.9,298.3c4.5,0,8.1-3.6,8.1-8.1c0-4.5-3.6-8.1-8.1-8.1c-4.5,0-8.1,3.6-8.1,8.1
			C284.8,294.6,288.4,298.3,292.9,298.3z"/>
		
			<ellipse transform="matrix(0.6854 -0.7282 0.7282 0.6854 -57.7069 446.7345)" class="st0" cx="488.1" cy="290.1" rx="8.1" ry="8.1"/>
		<ellipse transform="matrix(0.9734 -0.229 0.229 0.9734 -48.279 164.1653)" class="st0" cx="683.3" cy="290.1" rx="8.1" ry="8.1"/>
		
			<ellipse transform="matrix(0.9734 -0.229 0.229 0.9734 -43.0928 208.8665)" class="st0" cx="878.6" cy="290.1" rx="8.1" ry="8.1"/>
		<path class="st0" d="M1073.8,298.3c4.5,0,8.1-3.6,8.1-8.1c0-4.5-3.6-8.1-8.1-8.1c-4.5,0-8.1,3.6-8.1,8.1
			C1065.7,294.6,1069.3,298.3,1073.8,298.3z"/>
		
			<ellipse transform="matrix(0.7071 -0.7071 0.7071 0.7071 166.5355 982.3441)" class="st0" cx="1269.1" cy="290.1" rx="8.1" ry="8.1"/>
		<circle class="st0" cx="1464.3" cy="290.1" r="8.1"/>
		
			<ellipse transform="matrix(0.7071 -0.7071 0.7071 0.7071 280.9033 1258.4523)" class="st0" cx="1659.5" cy="290.1" rx="8.1" ry="8.1"/>
		<path class="st0" d="M1854.8,298.3c4.5,0,8.1-3.6,8.1-8.1c0-4.5-3.6-8.1-8.1-8.1c-4.5,0-8.1,3.6-8.1,8.1
			C1846.7,294.6,1850.3,298.3,1854.8,298.3z"/>
		
			<ellipse transform="matrix(0.9732 -0.2298 0.2298 0.9732 -11.8217 478.7609)" class="st0" cx="2050" cy="290.1" rx="8.1" ry="8.1"/>
		
			<ellipse transform="matrix(0.9732 -0.2298 0.2298 0.9732 -6.5988 523.6177)" class="st0" cx="2245.3" cy="290.1" rx="8.1" ry="8.1"/>
		
			<ellipse transform="matrix(0.9732 -0.2298 0.2298 0.9732 -1.376 568.4744)" class="st0" cx="2440.5" cy="290.1" rx="8.1" ry="8.1"/>
		<circle class="st0" cx="2635.7" cy="290.1" r="8.1"/>
		
			<ellipse transform="matrix(0.7071 -0.7071 0.7071 0.7071 624.0067 2086.7771)" class="st0" cx="2831" cy="290.1" rx="8.1" ry="8.1"/>
	</g>
	<g>
		
			<ellipse transform="matrix(0.7071 -0.7071 0.7071 0.7071 -314.2769 211.0602)" class="st0" cx="97.6" cy="484.9" rx="8.1" ry="8.1"/>
		<path class="st0" d="M292.9,493c4.5,0,8.1-3.6,8.1-8.1c0-4.5-3.6-8.1-8.1-8.1c-4.5,0-8.1,3.6-8.1,8.1
			C284.8,489.4,288.4,493,292.9,493z"/>
		
			<ellipse transform="matrix(0.6854 -0.7282 0.7282 0.6854 -199.5246 508.0104)" class="st0" cx="488.1" cy="484.9" rx="8.1" ry="8.1"/>
		
			<ellipse transform="matrix(0.9734 -0.229 0.229 0.9734 -92.8686 169.3386)" class="st0" cx="683.3" cy="484.9" rx="8.1" ry="8.1"/>
		
			<ellipse transform="matrix(0.9734 -0.229 0.229 0.9734 -87.6823 214.0398)" class="st0" cx="878.6" cy="484.9" rx="8.1" ry="8.1"/>
		<path class="st0" d="M1073.8,493c4.5,0,8.1-3.6,8.1-8.1c0-4.5-3.6-8.1-8.1-8.1c-4.5,0-8.1,3.6-8.1,8.1
			C1065.7,489.4,1069.3,493,1073.8,493z"/>
		
			<ellipse transform="matrix(0.7071 -0.7071 0.7071 0.7071 28.8265 1039.3851)" class="st0" cx="1269.1" cy="484.9" rx="8.1" ry="8.1"/>
		<circle class="st0" cx="1464.3" cy="484.9" r="8.1"/>
		
			<ellipse transform="matrix(0.7071 -0.7071 0.7071 0.7071 143.1942 1315.4933)" class="st0" cx="1659.5" cy="484.9" rx="8.1" ry="8.1"/>
		<path class="st0" d="M1854.8,493c4.5,0,8.1-3.6,8.1-8.1c0-4.5-3.6-8.1-8.1-8.1c-4.5,0-8.1,3.6-8.1,8.1
			C1846.7,489.4,1850.3,493,1854.8,493z"/>
		
			<ellipse transform="matrix(0.9732 -0.2298 0.2298 0.9732 -56.5663 483.9707)" class="st0" cx="2050" cy="484.9" rx="8.1" ry="8.1"/>
		
			<ellipse transform="matrix(0.9732 -0.2298 0.2298 0.9732 -51.3434 528.8275)" class="st0" cx="2245.3" cy="484.9" rx="8.1" ry="8.1"/>
		
			<ellipse transform="matrix(0.9732 -0.2298 0.2298 0.9732 -46.1206 573.6842)" class="st0" cx="2440.5" cy="484.9" rx="8.1" ry="8.1"/>
		<circle class="st0" cx="2635.7" cy="484.9" r="8.1"/>
		
			<ellipse transform="matrix(0.7071 -0.7071 0.7071 0.7071 486.2976 2143.8181)" class="st0" cx="2831" cy="484.9" rx="8.1" ry="8.1"/>
	</g>
	<g>
		
			<ellipse transform="matrix(0.7071 -0.7071 0.7071 0.7071 -451.986 268.1012)" class="st0" cx="97.6" cy="679.6" rx="8.1" ry="8.1"/>
		<path class="st0" d="M292.9,687.8c4.5,0,8.1-3.6,8.1-8.1c0-4.5-3.6-8.1-8.1-8.1c-4.5,0-8.1,3.6-8.1,8.1
			C284.8,684.1,288.4,687.8,292.9,687.8z"/>
		
			<ellipse transform="matrix(0.6854 -0.7282 0.7282 0.6854 -341.3422 569.2864)" class="st0" cx="488.1" cy="679.6" rx="8.1" ry="8.1"/>
		
			<ellipse transform="matrix(0.9734 -0.229 0.229 0.9734 -137.4581 174.5119)" class="st0" cx="683.3" cy="679.6" rx="8.1" ry="8.1"/>
		
			<ellipse transform="matrix(0.9734 -0.229 0.229 0.9734 -132.2719 219.2131)" class="st0" cx="878.6" cy="679.6" rx="8.1" ry="8.1"/>
		<path class="st0" d="M1073.8,687.8c4.5,0,8.1-3.6,8.1-8.1c0-4.5-3.6-8.1-8.1-8.1c-4.5,0-8.1,3.6-8.1,8.1
			C1065.7,684.1,1069.3,687.8,1073.8,687.8z"/>
		
			<ellipse transform="matrix(0.7071 -0.7071 0.7071 0.7071 -108.8826 1096.426)" class="st0" cx="1269.1" cy="679.6" rx="8.1" ry="8.1"/>
		<circle class="st0" cx="1464.3" cy="679.6" r="8.1"/>
		
			<ellipse transform="matrix(0.7071 -0.7071 0.7071 0.7071 5.4852 1372.5342)" class="st0" cx="1659.5" cy="679.6" rx="8.1" ry="8.1"/>
		<path class="st0" d="M1854.8,687.8c4.5,0,8.1-3.6,8.1-8.1c0-4.5-3.6-8.1-8.1-8.1c-4.5,0-8.1,3.6-8.1,8.1
			C1846.7,684.1,1850.3,687.8,1854.8,687.8z"/>
		
			<ellipse transform="matrix(0.9732 -0.2298 0.2298 0.9732 -101.3109 489.1805)" class="st0" cx="2050" cy="679.6" rx="8.1" ry="8.1"/>
		
			<ellipse transform="matrix(0.9732 -0.2298 0.2298 0.9732 -96.0881 534.0373)" class="st0" cx="2245.3" cy="679.6" rx="8.1" ry="8.1"/>
		
			<ellipse transform="matrix(0.9732 -0.2298 0.2298 0.9732 -90.8652 578.894)" class="st0" cx="2440.5" cy="679.6" rx="8.1" ry="8.1"/>
		<circle class="st0" cx="2635.7" cy="679.6" r="8.1"/>
		
			<ellipse transform="matrix(0.7071 -0.7071 0.7071 0.7071 348.5886 2200.8591)" class="st0" cx="2831" cy="679.6" rx="8.1" ry="8.1"/>
	</g>
	<g>
		
			<ellipse transform="matrix(0.7071 -0.7071 0.7071 0.7071 -589.695 325.1421)" class="st0" cx="97.6" cy="874.4" rx="8.1" ry="8.1"/>
		<path class="st0" d="M292.9,882.5c4.5,0,8.1-3.6,8.1-8.1c0-4.5-3.6-8.1-8.1-8.1c-4.5,0-8.1,3.6-8.1,8.1
			C284.8,878.9,288.4,882.5,292.9,882.5z"/>
		
			<ellipse transform="matrix(0.6854 -0.7282 0.7282 0.6854 -483.1599 630.5624)" class="st0" cx="488.1" cy="874.4" rx="8.1" ry="8.1"/>
		
			<ellipse transform="matrix(0.9734 -0.229 0.229 0.9734 -182.0477 179.6852)" class="st0" cx="683.3" cy="874.4" rx="8.1" ry="8.1"/>
		
			<ellipse transform="matrix(0.9734 -0.229 0.229 0.9734 -176.8615 224.3864)" class="st0" cx="878.6" cy="874.4" rx="8.1" ry="8.1"/>
		<path class="st0" d="M1073.8,882.5c4.5,0,8.1-3.6,8.1-8.1c0-4.5-3.6-8.1-8.1-8.1c-4.5,0-8.1,3.6-8.1,8.1
			C1065.7,878.9,1069.3,882.5,1073.8,882.5z"/>
		
			<ellipse transform="matrix(0.7071 -0.7071 0.7071 0.7071 -246.5916 1153.467)" class="st0" cx="1269.1" cy="874.4" rx="8.1" ry="8.1"/>
		<circle class="st0" cx="1464.3" cy="874.4" r="8.1"/>
		
			<ellipse transform="matrix(0.7071 -0.7071 0.7071 0.7071 -132.2239 1429.5752)" class="st0" cx="1659.5" cy="874.4" rx="8.1" ry="8.1"/>
		<path class="st0" d="M1854.8,882.5c4.5,0,8.1-3.6,8.1-8.1c0-4.5-3.6-8.1-8.1-8.1c-4.5,0-8.1,3.6-8.1,8.1
			C1846.7,878.9,1850.3,882.5,1854.8,882.5z"/>
		
			<ellipse transform="matrix(0.9732 -0.2298 0.2298 0.9732 -146.0555 494.3904)" class="st0" cx="2050" cy="874.4" rx="8.1" ry="8.1"/>
		
			<ellipse transform="matrix(0.9732 -0.2298 0.2298 0.9732 -140.8327 539.2471)" class="st0" cx="2245.3" cy="874.4" rx="8.1" ry="8.1"/>
		
			<ellipse transform="matrix(0.9732 -0.2298 0.2298 0.9732 -135.6098 584.1038)" class="st0" cx="2440.5" cy="874.4" rx="8.1" ry="8.1"/>
		<circle class="st0" cx="2635.7" cy="874.4" r="8.1"/>
		
			<ellipse transform="matrix(0.7071 -0.7071 0.7071 0.7071 210.8795 2257.9001)" class="st0" cx="2831" cy="874.4" rx="8.1" ry="8.1"/>
	</g>
	<g>
		
			<ellipse transform="matrix(0.7071 -0.7071 0.7071 0.7071 -727.4041 382.1831)" class="st0" cx="97.6" cy="1069.1" rx="8.1" ry="8.1"/>
		<path class="st0" d="M292.9,1077.3c4.5,0,8.1-3.6,8.1-8.1c0-4.5-3.6-8.1-8.1-8.1c-4.5,0-8.1,3.6-8.1,8.1
			C284.8,1073.6,288.4,1077.3,292.9,1077.3z"/>
		
			<ellipse transform="matrix(0.6854 -0.7282 0.7282 0.6854 -624.9775 691.8384)" class="st0" cx="488.1" cy="1069.1" rx="8.1" ry="8.1"/>
		
			<ellipse transform="matrix(0.9734 -0.229 0.229 0.9734 -226.6373 184.8584)" class="st0" cx="683.3" cy="1069.1" rx="8.1" ry="8.1"/>
		
			<ellipse transform="matrix(0.9734 -0.229 0.229 0.9734 -221.451 229.5597)" class="st0" cx="878.6" cy="1069.1" rx="8.1" ry="8.1"/>
		<path class="st0" d="M1073.8,1077.3c4.5,0,8.1-3.6,8.1-8.1c0-4.5-3.6-8.1-8.1-8.1c-4.5,0-8.1,3.6-8.1,8.1
			C1065.7,1073.6,1069.3,1077.3,1073.8,1077.3z"/>
		
			<ellipse transform="matrix(0.7071 -0.7071 0.7071 0.7071 -384.3007 1210.5079)" class="st0" cx="1269.1" cy="1069.1" rx="8.1" ry="8.1"/>
		<circle class="st0" cx="1464.3" cy="1069.1" r="8.1"/>
		
			<ellipse transform="matrix(0.7071 -0.7071 0.7071 0.7071 -269.9329 1486.6161)" class="st0" cx="1659.5" cy="1069.1" rx="8.1" ry="8.1"/>
		<path class="st0" d="M1854.8,1077.3c4.5,0,8.1-3.6,8.1-8.1c0-4.5-3.6-8.1-8.1-8.1c-4.5,0-8.1,3.6-8.1,8.1
			C1846.7,1073.6,1850.3,1077.3,1854.8,1077.3z"/>
		
			<ellipse transform="matrix(0.9732 -0.2298 0.2298 0.9732 -190.8002 499.6002)" class="st0" cx="2050" cy="1069.1" rx="8.1" ry="8.1"/>
		
			<ellipse transform="matrix(0.9732 -0.2298 0.2298 0.9732 -185.5773 544.457)" class="st0" cx="2245.3" cy="1069.1" rx="8.1" ry="8.1"/>
		
			<ellipse transform="matrix(0.9732 -0.2298 0.2298 0.9732 -180.3544 589.3137)" class="st0" cx="2440.5" cy="1069.1" rx="8.1" ry="8.1"/>
		<circle class="st0" cx="2635.7" cy="1069.1" r="8.1"/>
		
			<ellipse transform="matrix(0.7071 -0.7071 0.7071 0.7071 73.1705 2314.9409)" class="st0" cx="2831" cy="1069.1" rx="8.1" ry="8.1"/>
	</g>
	<g>
		
			<ellipse transform="matrix(0.7071 -0.7071 0.7071 0.7071 -865.1131 439.224)" class="st0" cx="97.6" cy="1263.9" rx="8.1" ry="8.1"/>
		<path class="st0" d="M292.9,1272c4.5,0,8.1-3.6,8.1-8.1c0-4.5-3.6-8.1-8.1-8.1c-4.5,0-8.1,3.6-8.1,8.1
			C284.8,1268.4,288.4,1272,292.9,1272z"/>
		
			<ellipse transform="matrix(0.6854 -0.7282 0.7282 0.6854 -766.7952 753.1144)" class="st0" cx="488.1" cy="1263.9" rx="8.1" ry="8.1"/>
		
			<ellipse transform="matrix(0.9734 -0.229 0.229 0.9734 -271.2268 190.0317)" class="st0" cx="683.3" cy="1263.9" rx="8.1" ry="8.1"/>
		
			<ellipse transform="matrix(0.9734 -0.229 0.229 0.9734 -266.0406 234.733)" class="st0" cx="878.6" cy="1263.9" rx="8.1" ry="8.1"/>
		<path class="st0" d="M1073.8,1272c4.5,0,8.1-3.6,8.1-8.1c0-4.5-3.6-8.1-8.1-8.1c-4.5,0-8.1,3.6-8.1,8.1
			C1065.7,1268.4,1069.3,1272,1073.8,1272z"/>
		
			<ellipse transform="matrix(0.7071 -0.7071 0.7071 0.7071 -522.0097 1267.549)" class="st0" cx="1269.1" cy="1263.9" rx="8.1" ry="8.1"/>
		<circle class="st0" cx="1464.3" cy="1263.9" r="8.1"/>
		
			<ellipse transform="matrix(0.7071 -0.7071 0.7071 0.7071 -407.642 1543.6571)" class="st0" cx="1659.5" cy="1263.9" rx="8.1" ry="8.1"/>
		<path class="st0" d="M1854.8,1272c4.5,0,8.1-3.6,8.1-8.1c0-4.5-3.6-8.1-8.1-8.1c-4.5,0-8.1,3.6-8.1,8.1
			C1846.7,1268.4,1850.3,1272,1854.8,1272z"/>
		
			<ellipse transform="matrix(0.9732 -0.2298 0.2298 0.9732 -235.5448 504.81)" class="st0" cx="2050" cy="1263.9" rx="8.1" ry="8.1"/>
		
			<ellipse transform="matrix(0.9732 -0.2298 0.2298 0.9732 -230.3219 549.6667)" class="st0" cx="2245.3" cy="1263.9" rx="8.1" ry="8.1"/>
		
			<ellipse transform="matrix(0.9732 -0.2298 0.2298 0.9732 -225.099 594.5234)" class="st0" cx="2440.5" cy="1263.9" rx="8.1" ry="8.1"/>
		<circle class="st0" cx="2635.7" cy="1263.9" r="8.1"/>
		
			<ellipse transform="matrix(0.7071 -0.7071 0.7071 0.7071 -64.5386 2371.9819)" class="st0" cx="2831" cy="1263.9" rx="8.1" ry="8.1"/>
	</g>
	<g>
		
			<ellipse transform="matrix(0.7071 -0.7071 0.7071 0.7071 -1002.8221 496.265)" class="st0" cx="97.6" cy="1458.6" rx="8.1" ry="8.1"/>
		<path class="st0" d="M292.9,1466.8c4.5,0,8.1-3.6,8.1-8.1c0-4.5-3.6-8.1-8.1-8.1c-4.5,0-8.1,3.6-8.1,8.1
			C284.8,1463.1,288.4,1466.8,292.9,1466.8z"/>
		
			<ellipse transform="matrix(0.6854 -0.7282 0.7282 0.6854 -908.6129 814.3903)" class="st0" cx="488.1" cy="1458.6" rx="8.1" ry="8.1"/>
		
			<ellipse transform="matrix(0.9734 -0.229 0.229 0.9734 -315.8164 195.205)" class="st0" cx="683.3" cy="1458.6" rx="8.1" ry="8.1"/>
		
			<ellipse transform="matrix(0.9734 -0.229 0.229 0.9734 -310.6302 239.9062)" class="st0" cx="878.6" cy="1458.6" rx="8.1" ry="8.1"/>
		<path class="st0" d="M1073.8,1466.8c4.5,0,8.1-3.6,8.1-8.1c0-4.5-3.6-8.1-8.1-8.1c-4.5,0-8.1,3.6-8.1,8.1
			C1065.7,1463.1,1069.3,1466.8,1073.8,1466.8z"/>
		
			<ellipse transform="matrix(0.7071 -0.7071 0.7071 0.7071 -659.7188 1324.5898)" class="st0" cx="1269.1" cy="1458.6" rx="8.1" ry="8.1"/>
		<circle class="st0" cx="1464.3" cy="1458.6" r="8.1"/>
		
			<ellipse transform="matrix(0.7071 -0.7071 0.7071 0.7071 -545.351 1600.698)" class="st0" cx="1659.5" cy="1458.6" rx="8.1" ry="8.1"/>
		<path class="st0" d="M1854.8,1466.8c4.5,0,8.1-3.6,8.1-8.1c0-4.5-3.6-8.1-8.1-8.1c-4.5,0-8.1,3.6-8.1,8.1
			C1846.7,1463.1,1850.3,1466.8,1854.8,1466.8z"/>
		
			<ellipse transform="matrix(0.9732 -0.2298 0.2298 0.9732 -280.2894 510.0198)" class="st0" cx="2050" cy="1458.6" rx="8.1" ry="8.1"/>
		
			<ellipse transform="matrix(0.9732 -0.2298 0.2298 0.9732 -275.0665 554.8766)" class="st0" cx="2245.3" cy="1458.6" rx="8.1" ry="8.1"/>
		
			<ellipse transform="matrix(0.9732 -0.2298 0.2298 0.9732 -269.8437 599.7333)" class="st0" cx="2440.5" cy="1458.6" rx="8.1" ry="8.1"/>
		<circle class="st0" cx="2635.7" cy="1458.6" r="8.1"/>
		
			<ellipse transform="matrix(0.7071 -0.7071 0.7071 0.7071 -202.2476 2429.0229)" class="st0" cx="2831" cy="1458.6" rx="8.1" ry="8.1"/>
	</g>
	<g>
		
			<ellipse transform="matrix(0.7071 -0.7071 0.7071 0.7071 -1140.5313 553.3059)" class="st0" cx="97.6" cy="1653.4" rx="8.1" ry="8.1"/>
		<path class="st0" d="M292.9,1661.5c4.5,0,8.1-3.6,8.1-8.1c0-4.5-3.6-8.1-8.1-8.1c-4.5,0-8.1,3.6-8.1,8.1
			C284.8,1657.9,288.4,1661.5,292.9,1661.5z"/>
		
			<ellipse transform="matrix(0.6854 -0.7282 0.7282 0.6854 -1050.4305 875.6663)" class="st0" cx="488.1" cy="1653.4" rx="8.1" ry="8.1"/>
		
			<ellipse transform="matrix(0.9734 -0.229 0.229 0.9734 -360.406 200.3783)" class="st0" cx="683.3" cy="1653.4" rx="8.1" ry="8.1"/>
		
			<ellipse transform="matrix(0.9734 -0.229 0.229 0.9734 -355.2198 245.0795)" class="st0" cx="878.6" cy="1653.4" rx="8.1" ry="8.1"/>
		<path class="st0" d="M1073.8,1661.5c4.5,0,8.1-3.6,8.1-8.1c0-4.5-3.6-8.1-8.1-8.1c-4.5,0-8.1,3.6-8.1,8.1
			C1065.7,1657.9,1069.3,1661.5,1073.8,1661.5z"/>
		
			<ellipse transform="matrix(0.7071 -0.7071 0.7071 0.7071 -797.4278 1381.6309)" class="st0" cx="1269.1" cy="1653.4" rx="8.1" ry="8.1"/>
		<circle class="st0" cx="1464.3" cy="1653.4" r="8.1"/>
		
			<ellipse transform="matrix(0.7071 -0.7071 0.7071 0.7071 -683.0601 1657.739)" class="st0" cx="1659.5" cy="1653.4" rx="8.1" ry="8.1"/>
		<path class="st0" d="M1854.8,1661.5c4.5,0,8.1-3.6,8.1-8.1c0-4.5-3.6-8.1-8.1-8.1c-4.5,0-8.1,3.6-8.1,8.1
			C1846.7,1657.9,1850.3,1661.5,1854.8,1661.5z"/>
		
			<ellipse transform="matrix(0.9732 -0.2298 0.2298 0.9732 -325.034 515.2296)" class="st0" cx="2050" cy="1653.4" rx="8.1" ry="8.1"/>
		
			<ellipse transform="matrix(0.9732 -0.2298 0.2298 0.9732 -319.8111 560.0864)" class="st0" cx="2245.3" cy="1653.4" rx="8.1" ry="8.1"/>
		
			<ellipse transform="matrix(0.9732 -0.2298 0.2298 0.9732 -314.5883 604.9431)" class="st0" cx="2440.5" cy="1653.4" rx="8.1" ry="8.1"/>
		<circle class="st0" cx="2635.7" cy="1653.4" r="8.1"/>
		
			<ellipse transform="matrix(0.7071 -0.7071 0.7071 0.7071 -339.9567 2486.064)" class="st0" cx="2831" cy="1653.4" rx="8.1" ry="8.1"/>
	</g>
</g>
</svg>
