<svg id="FLAGS" xmlns="http://www.w3.org/2000/svg" viewBox="0 0 24 16"><defs><style>.cls-1{fill:#f4f4f4;}.cls-2{fill:#ff1612;}.cls-3{fill:#0437a0;}</style></defs><title>Artboard 1</title><g id="USA"><path class="cls-1" d="M24.06,1.23V2.46H12.22V1.23Zm0,2.46V4.92H12.22V3.69Zm0,2.47V7.39H12.22V6.16Zm0,2.45V9.84H.07V8.61Zm0,2.47v1.23H.07V11.08Zm0,2.46v1.23H.07V13.54Z"/><path class="cls-2" d="M.07,0h24V1.23H.07V0Zm0,14.76h24V16H.07V14.77Zm0-2.46h24v1.23H.07V12.31Zm0-2.47h24v1.23H.07V9.84Zm0-2.45h24V8.61H.07V7.39Zm0-2.46h24V6.16H.07V4.93Zm0-2.47h24V3.69H.07V2.46Z"/><polygon class="cls-3" points="0.07 0.01 12.22 0.01 12.22 8.61 0.07 8.61 0.07 0.01"/><path class="cls-1" d="M11.21.43l.12.34h.35l-.3.21.12.34-.3-.21-.3.21L11,1l-.3-.21h.35l.14-.34ZM1.07,3.86l.11.34h.35l-.29.21.11.34-.3-.21-.29.21.11-.34L.57,4.2H.93l.14-.34Zm1,.86.12.34h.35l-.3.21.12.34-.3-.21-.3.21.12-.34-.3-.21h.35l.14-.34Zm8.12,0,.11.34h.35l-.29.21.11.34-.3-.21-.29.21L10,5.27l-.3-.21h.36l.14-.34Zm-2,0,.11.34h.35l-.29.21.11.34-.3-.21-.29.21L8,5.27l-.3-.21H8l.14-.34Zm-2,0,.11.34h.35l-.29.21.11.34-.3-.21-.29.21L6,5.27l-.3-.21H6l.14-.34Zm-2,0,.11.34h.35l-.29.21.11.34L4.1,5.4l-.29.21.11-.34-.3-.21H4l.14-.34Zm-1-.86.11.34h.36l-.3.21.11.34-.29-.21-.3.21.11-.34L2.61,4.2H3l.14-.34Zm6.08,0,.12.34h.35l-.3.21.11.34-.29-.21-.3.21L9,4.41,8.69,4.2H9l.14-.34Zm2,0,.12.34h.35l-.3.21.12.34-.3-.21-.3.21L11,4.41l-.3-.21h.35l.14-.34Zm0,1.72.12.34h.35l-.3.21.12.34-.3-.21-.3.21L11,6.13l-.3-.21h.35l.14-.34Zm-2,0,.12.34h.35l-.3.21.11.34-.29-.21-.3.21L9,6.13l-.29-.21H9l.14-.34Zm-6.08,0,.11.34h.36l-.3.21.11.34-.29-.21-.3.21.11-.34-.29-.21H3l.14-.34Zm-1,.86.12.34h.35L2.25,7l.12.34-.3-.21-.3.21L1.89,7l-.3-.21h.35l.14-.34Zm8.12,0,.11.34h.35L10.37,7l.11.34-.3-.21-.29.21L10,7l-.3-.21h.36l.14-.34Zm-2,0,.11.34h.35L8.34,7l.11.34-.3-.21-.29.21L8,7l-.3-.21H8l.14-.34Zm-2,0,.11.34h.35L6.32,7l.11.34-.3-.21-.29.21L6,7l-.3-.21H6l.14-.34Zm-2,0,.11.34h.35L4.29,7l.11.34-.3-.21-.29.21L3.92,7l-.3-.21H4l.14-.34Zm-3-.86.11.34h.35l-.29.21.11.34-.3-.21-.29.21.11-.34-.3-.21H.93l.14-.34Zm0,1.72.11.34h.35l-.29.21.11.34L1.05,8l-.29.21.11-.34-.3-.21H.93l.14-.34Zm2,0,.11.34h.36l-.3.21.11.34L3.09,8l-.3.21.11-.34-.27-.21H3L3.1,7.3Zm6.08,0,.12.34h.35l-.3.21.11.34L9.17,8l-.3.21L9,7.85l-.29-.21H9l.14-.34Zm2,0,.12.34h.35l-.3.21.12.34L11.2,8l-.3.21L11,7.85l-.3-.21h.35l.14-.34ZM2.08,3l.12.34h.35l-.3.21.12.34-.3-.22-.3.22.12-.34-.3-.21h.35L2.08,3Zm0-1.71.12.34h.35l-.3.21.12.34L2.07,2l-.3.21.12-.34-.3-.21h.35l.14-.34Zm8.12,0,.11.34h.35l-.29.21.11.34L10.18,2l-.29.21L10,1.84l-.3-.21h.36l.14-.34Zm-2,0,.11.34h.35l-.29.21.11.34L8.15,2l-.29.21L8,1.84l-.3-.21H8l.14-.34Zm-2,0,.11.34h.35l-.29.21.11.34L6.13,2l-.29.21L6,1.84l-.3-.21H6l.14-.34Zm-2,0,.11.34h.35l-.29.21.11.34L4.1,2l-.29.21.11-.34-.3-.21H4l.14-.34Zm-3,.86.11.34h.35l-.29.21L1.35,3l-.3-.21L.76,3,.87,2.7l-.3-.21H.93l.14-.34ZM10.2,3l.11.34h.35l-.29.21.11.34-.3-.22-.29.22L10,3.55l-.3-.21h.36L10.2,3Zm-2,0,.11.34h.35l-.29.21.11.34-.3-.22-.29.22L8,3.55l-.3-.21h.35L8.17,3Zm-2,0,.11.34h.35l-.29.21.11.34-.3-.22-.29.22L6,3.55l-.3-.21H6L6.15,3Zm-2,0,.11.34h.35l-.29.21.11.34-.3-.22-.29.22.11-.34-.3-.21H4L4.12,3Zm-1-.85.11.34h.36l-.3.21L3.38,3l-.29-.21L2.79,3l.13-.34-.3-.21H3l.13-.34ZM3.1.43l.11.34h.36L3.27,1l.11.34-.29-.21-.3.21L2.9,1,2.61.77H3L3.1.43Zm-2,0,.11.34h.35L1.24,1l.11.34-.3-.21-.29.21L.87,1,.57.77H.93L1.07.43ZM5.13,7.3l.12.34H5.6l-.3.21.11.34L5.12,8l-.3.21.11-.34-.29-.21H5l.14-.34Zm0-1.72.12.34H5.6l-.3.21.11.34-.29-.21-.3.21.11-.34-.29-.21H5l.14-.34Zm0-1.72.12.34H5.6l-.3.21.11.34-.29-.21-.3.21.11-.34L4.64,4.2H5l.14-.34Zm0-1.71.12.34H5.6l-.3.21L5.41,3l-.29-.21L4.82,3l.11-.34-.29-.21H5l.14-.34Zm0-1.72.12.34H5.6L5.3,1l.11.34-.29-.21-.3.21L4.93,1,4.64.77H5L5.13.43Zm2,6.87.11.34h.36l-.3.21.11.34L7.14,8l-.3.21L7,7.85l-.29-.21H7l.14-.34Zm0-1.72.11.34h.36l-.3.21.11.34-.29-.21-.3.21L7,6.13l-.29-.21H7l.14-.34Zm0-1.72.11.34h.36l-.3.21.11.34-.29-.21-.3.21L7,4.41,6.66,4.2H7l.14-.34Zm0-1.71.11.34h.36l-.3.21L7.43,3l-.29-.21L6.84,3,7,2.7l-.29-.21H7l.14-.34Zm0-1.72.11.34h.36L7.32,1l.11.34-.29-.21-.3.21L7,1,6.66.77H7L7.15.43Zm2,1.72.12.34h.35l-.3.21L9.46,3l-.29-.21L8.87,3,9,2.7l-.29-.21H9l.14-.34Zm0-1.72L9.3.77h.35L9.35,1l.11.34-.29-.21-.3.21L9,1,8.69.77H9L9.18.43Zm2,1.72.12.34h.35l-.3.21L11.5,3l-.3-.21L10.9,3,11,2.7l-.3-.21h.35l.14-.34Z"/></g></svg>